<svg xmlns="http://www.w3.org/2000/svg" version="1.1" xmlns:xlink="http://www.w3.org/1999/xlink" xmlns:svgjs="http://svgjs.dev/svgjs" width="1600" height="700" preserveAspectRatio="none" viewBox="0 0 1600 700"><g mask="url(&quot;#SvgjsMask1025&quot;)" fill="none"><rect width="1600" height="700" x="0" y="0" fill="#0e2a47"></rect><g mask="url(&quot;#SvgjsMask1026&quot;)"><path d="M73.5 346.5L94.5 325.5M52.5 346.5L73.5 325.5M31.5 346.5L52.5 325.5M-10.5 346.5L10.5 346.5L31.5 346.5L52.5 346.5L73.5 346.5L94.5 346.5L115.5 346.5" stroke="rgba(12, 186, 70, 1)" stroke-width="3.5"></path><path d="M110.25 346.5 a5.25 5.25 0 1 0 10.5 0 a5.25 5.25 0 1 0 -10.5 0zM89.25 325.5 a5.25 5.25 0 1 0 10.5 0 a5.25 5.25 0 1 0 -10.5 0zM68.25 325.5 a5.25 5.25 0 1 0 10.5 0 a5.25 5.25 0 1 0 -10.5 0zM47.25 325.5 a5.25 5.25 0 1 0 10.5 0 a5.25 5.25 0 1 0 -10.5 0z" fill="rgba(12, 186, 70, 1)"></path><path d="M346.5 388.5L367.5 367.5L388.5 367.5L409.5 367.5L430.5 367.5M430.5 388.5L451.5 409.5L472.5 409.5M73.5 367.5L94.5 388.5L115.5 388.5M262.5 388.5L283.5 367.5L304.5 367.5L325.5 367.5L346.5 367.5L367.5 346.5L388.5 346.5M220.5 388.5L241.5 367.5L262.5 367.5L283.5 346.5L304.5 346.5L325.5 346.5L346.5 346.5M493.5 388.5L514.5 388.5M535.5 367.5L556.5 346.5L577.5 346.5L598.5 346.5M-10.5 367.5L10.5 367.5L31.5 367.5L52.5 367.5L73.5 367.5L94.5 367.5L115.5 367.5L136.5 388.5L157.5 388.5L178.5 388.5L199.5 388.5L220.5 388.5L241.5 388.5L262.5 388.5L283.5 388.5L304.5 388.5L325.5 388.5L346.5 388.5L367.5 388.5L388.5 388.5L409.5 388.5L430.5 388.5L451.5 388.5L472.5 388.5L493.5 388.5L514.5 367.5L535.5 367.5L556.5 367.5" stroke="#3a7cc3" stroke-width="3.5"></path><path d="M551.25 367.5 a5.25 5.25 0 1 0 10.5 0 a5.25 5.25 0 1 0 -10.5 0zM425.25 367.5 a5.25 5.25 0 1 0 10.5 0 a5.25 5.25 0 1 0 -10.5 0zM467.25 409.5 a5.25 5.25 0 1 0 10.5 0 a5.25 5.25 0 1 0 -10.5 0zM110.25 388.5 a5.25 5.25 0 1 0 10.5 0 a5.25 5.25 0 1 0 -10.5 0zM383.25 346.5 a5.25 5.25 0 1 0 10.5 0 a5.25 5.25 0 1 0 -10.5 0zM341.25 346.5 a5.25 5.25 0 1 0 10.5 0 a5.25 5.25 0 1 0 -10.5 0zM509.25 388.5 a5.25 5.25 0 1 0 10.5 0 a5.25 5.25 0 1 0 -10.5 0zM593.25 346.5 a5.25 5.25 0 1 0 10.5 0 a5.25 5.25 0 1 0 -10.5 0z" fill="#3a7cc3"></path><path d="M409.5 325.5L430.5 346.5L451.5 346.5L472.5 346.5L493.5 346.5M451.5 325.5L472.5 304.5L493.5 304.5L514.5 283.5L535.5 283.5M871.5 325.5L892.5 346.5M913.5 325.5L934.5 346.5L955.5 346.5L976.5 346.5M493.5 325.5L514.5 325.5L535.5 325.5L556.5 325.5L577.5 325.5M241.5 325.5L262.5 346.5M283.5 325.5L304.5 304.5M325.5 325.5L346.5 304.5L367.5 304.5L388.5 304.5M619.5 283.5L640.5 304.5L661.5 325.5M703.5 304.5L724.5 325.5L745.5 325.5L766.5 325.5L787.5 325.5L808.5 325.5L829.5 325.5L850.5 325.5L871.5 346.5L892.5 367.5L913.5 367.5L934.5 367.5L955.5 367.5L976.5 367.5M724.5 304.5L745.5 283.5L766.5 283.5L787.5 283.5L808.5 283.5L829.5 283.5L850.5 283.5L871.5 283.5L892.5 283.5M-10.5 325.5L10.5 325.5L31.5 304.5L52.5 304.5L73.5 304.5L94.5 304.5L115.5 304.5L136.5 304.5L157.5 304.5L178.5 325.5L199.5 325.5L220.5 325.5L241.5 325.5L262.5 325.5L283.5 325.5L304.5 325.5L325.5 325.5L346.5 325.5L367.5 325.5L388.5 325.5L409.5 325.5L430.5 325.5L451.5 325.5L472.5 325.5L493.5 325.5L514.5 304.5L535.5 304.5L556.5 304.5L577.5 304.5L598.5 304.5L619.5 283.5L640.5 283.5L661.5 304.5L682.5 304.5L703.5 304.5L724.5 304.5L745.5 304.5L766.5 304.5L787.5 304.5L808.5 304.5L829.5 304.5L850.5 304.5L871.5 325.5L892.5 325.5L913.5 325.5L934.5 325.5L955.5 325.5" stroke="rgba(159, 218, 23, 1)" stroke-width="3.5"></path><path d="M950.25 325.5 a5.25 5.25 0 1 0 10.5 0 a5.25 5.25 0 1 0 -10.5 0zM488.25 346.5 a5.25 5.25 0 1 0 10.5 0 a5.25 5.25 0 1 0 -10.5 0zM530.25 283.5 a5.25 5.25 0 1 0 10.5 0 a5.25 5.25 0 1 0 -10.5 0zM887.25 346.5 a5.25 5.25 0 1 0 10.5 0 a5.25 5.25 0 1 0 -10.5 0zM971.25 346.5 a5.25 5.25 0 1 0 10.5 0 a5.25 5.25 0 1 0 -10.5 0zM572.25 325.5 a5.25 5.25 0 1 0 10.5 0 a5.25 5.25 0 1 0 -10.5 0zM257.25 346.5 a5.25 5.25 0 1 0 10.5 0 a5.25 5.25 0 1 0 -10.5 0zM299.25 304.5 a5.25 5.25 0 1 0 10.5 0 a5.25 5.25 0 1 0 -10.5 0zM383.25 304.5 a5.25 5.25 0 1 0 10.5 0 a5.25 5.25 0 1 0 -10.5 0zM656.25 325.5 a5.25 5.25 0 1 0 10.5 0 a5.25 5.25 0 1 0 -10.5 0zM971.25 367.5 a5.25 5.25 0 1 0 10.5 0 a5.25 5.25 0 1 0 -10.5 0zM887.25 283.5 a5.25 5.25 0 1 0 10.5 0 a5.25 5.25 0 1 0 -10.5 0z" fill="rgba(159, 218, 23, 1)"></path><path d="M52.5 409.5L73.5 388.5M10.5 388.5L31.5 388.5L52.5 388.5M-10.5 388.5L10.5 388.5L31.5 409.5L52.5 409.5L73.5 409.5L94.5 409.5L115.5 409.5L136.5 409.5L157.5 409.5L178.5 409.5L199.5 409.5L220.5 409.5L241.5 409.5L262.5 409.5L283.5 409.5L304.5 409.5L325.5 409.5L346.5 409.5L367.5 409.5" stroke="rgba(12, 186, 70, 1)" stroke-width="3.5"></path><path d="M362.25 409.5 a5.25 5.25 0 1 0 10.5 0 a5.25 5.25 0 1 0 -10.5 0zM68.25 388.5 a5.25 5.25 0 1 0 10.5 0 a5.25 5.25 0 1 0 -10.5 0zM47.25 388.5 a5.25 5.25 0 1 0 10.5 0 a5.25 5.25 0 1 0 -10.5 0z" fill="rgba(12, 186, 70, 1)"></path><path d="M136.5 241.5L157.5 262.5L178.5 262.5L199.5 262.5L220.5 262.5M115.5 262.5L136.5 262.5L157.5 283.5L178.5 304.5L199.5 304.5M94.5 283.5L115.5 283.5M-10.5 304.5L10.5 304.5L31.5 283.5L52.5 283.5L73.5 283.5L94.5 283.5L115.5 262.5L136.5 241.5L157.5 241.5" stroke="rgba(12, 186, 70, 1)" stroke-width="3.5"></path><path d="M152.25 241.5 a5.25 5.25 0 1 0 10.5 0 a5.25 5.25 0 1 0 -10.5 0zM215.25 262.5 a5.25 5.25 0 1 0 10.5 0 a5.25 5.25 0 1 0 -10.5 0zM194.25 304.5 a5.25 5.25 0 1 0 10.5 0 a5.25 5.25 0 1 0 -10.5 0zM110.25 283.5 a5.25 5.25 0 1 0 10.5 0 a5.25 5.25 0 1 0 -10.5 0z" fill="rgba(12, 186, 70, 1)"></path><path d="M-10.5 409.5L10.5 409.5L31.5 430.5L52.5 430.5L73.5 430.5L94.5 430.5L115.5 430.5L136.5 430.5L157.5 430.5L178.5 430.5L199.5 430.5L220.5 430.5L241.5 430.5L262.5 430.5L283.5 430.5L304.5 430.5L325.5 430.5L346.5 430.5L367.5 430.5" stroke="#3a7cc3" stroke-width="3.5"></path><path d="M362.25 430.5 a5.25 5.25 0 1 0 10.5 0 a5.25 5.25 0 1 0 -10.5 0z" fill="#3a7cc3"></path><path d="M493.5 178.5L514.5 199.5L535.5 220.5L556.5 220.5L577.5 220.5M430.5 199.5L451.5 199.5L472.5 199.5L493.5 199.5L514.5 220.5L535.5 241.5M388.5 199.5L409.5 220.5M808.5 157.5L829.5 178.5L850.5 178.5L871.5 178.5L892.5 178.5L913.5 178.5L934.5 178.5M598.5 178.5L619.5 157.5L640.5 157.5M220.5 199.5L241.5 178.5L262.5 178.5M682.5 178.5L703.5 157.5L724.5 157.5L745.5 157.5L766.5 136.5L787.5 136.5L808.5 136.5L829.5 136.5L850.5 136.5L871.5 136.5L892.5 136.5L913.5 136.5M703.5 178.5L724.5 199.5M766.5 157.5L787.5 178.5L808.5 199.5L829.5 199.5L850.5 199.5L871.5 199.5L892.5 199.5L913.5 199.5L934.5 199.5L955.5 220.5L976.5 220.5M556.5 178.5L577.5 199.5L598.5 199.5L619.5 199.5L640.5 199.5L661.5 199.5L682.5 199.5M262.5 199.5L283.5 220.5L304.5 220.5L325.5 220.5M-10.5 283.5L10.5 283.5L31.5 262.5L52.5 262.5L73.5 262.5L94.5 262.5L115.5 241.5L136.5 220.5L157.5 220.5L178.5 199.5L199.5 199.5L220.5 199.5L241.5 199.5L262.5 199.5L283.5 199.5L304.5 199.5L325.5 199.5L346.5 199.5L367.5 199.5L388.5 199.5L409.5 199.5L430.5 199.5L451.5 178.5L472.5 178.5L493.5 178.5L514.5 178.5L535.5 178.5L556.5 178.5L577.5 178.5L598.5 178.5L619.5 178.5L640.5 178.5L661.5 178.5L682.5 178.5L703.5 178.5L724.5 178.5L745.5 178.5L766.5 157.5L787.5 157.5L808.5 157.5L829.5 157.5L850.5 157.5L871.5 157.5L892.5 157.5" stroke="#dd1133" stroke-width="3.5"></path><path d="M887.25 157.5 a5.25 5.25 0 1 0 10.5 0 a5.25 5.25 0 1 0 -10.5 0zM572.25 220.5 a5.25 5.25 0 1 0 10.5 0 a5.25 5.25 0 1 0 -10.5 0zM530.25 241.5 a5.25 5.25 0 1 0 10.5 0 a5.25 5.25 0 1 0 -10.5 0zM404.25 220.5 a5.25 5.25 0 1 0 10.5 0 a5.25 5.25 0 1 0 -10.5 0zM929.25 178.5 a5.25 5.25 0 1 0 10.5 0 a5.25 5.25 0 1 0 -10.5 0zM635.25 157.5 a5.25 5.25 0 1 0 10.5 0 a5.25 5.25 0 1 0 -10.5 0zM257.25 178.5 a5.25 5.25 0 1 0 10.5 0 a5.25 5.25 0 1 0 -10.5 0zM908.25 136.5 a5.25 5.25 0 1 0 10.5 0 a5.25 5.25 0 1 0 -10.5 0zM719.25 199.5 a5.25 5.25 0 1 0 10.5 0 a5.25 5.25 0 1 0 -10.5 0zM971.25 220.5 a5.25 5.25 0 1 0 10.5 0 a5.25 5.25 0 1 0 -10.5 0zM677.25 199.5 a5.25 5.25 0 1 0 10.5 0 a5.25 5.25 0 1 0 -10.5 0zM320.25 220.5 a5.25 5.25 0 1 0 10.5 0 a5.25 5.25 0 1 0 -10.5 0z" fill="#dd1133"></path><path d="M136.5 451.5L157.5 472.5M409.5 472.5L430.5 451.5L451.5 451.5M304.5 451.5L325.5 472.5L346.5 472.5L367.5 472.5L388.5 493.5M388.5 472.5L409.5 451.5M283.5 451.5L304.5 472.5L325.5 493.5L346.5 493.5L367.5 493.5M-10.5 430.5L10.5 430.5L31.5 451.5L52.5 451.5L73.5 451.5L94.5 451.5L115.5 451.5L136.5 451.5L157.5 451.5L178.5 451.5L199.5 451.5L220.5 451.5L241.5 451.5L262.5 451.5L283.5 451.5L304.5 451.5L325.5 451.5L346.5 451.5L367.5 451.5L388.5 472.5L409.5 472.5L430.5 472.5" stroke="#3a7cc3" stroke-width="3.5"></path><path d="M425.25 472.5 a5.25 5.25 0 1 0 10.5 0 a5.25 5.25 0 1 0 -10.5 0zM152.25 472.5 a5.25 5.25 0 1 0 10.5 0 a5.25 5.25 0 1 0 -10.5 0zM446.25 451.5 a5.25 5.25 0 1 0 10.5 0 a5.25 5.25 0 1 0 -10.5 0zM383.25 493.5 a5.25 5.25 0 1 0 10.5 0 a5.25 5.25 0 1 0 -10.5 0zM404.25 451.5 a5.25 5.25 0 1 0 10.5 0 a5.25 5.25 0 1 0 -10.5 0zM362.25 493.5 a5.25 5.25 0 1 0 10.5 0 a5.25 5.25 0 1 0 -10.5 0z" fill="#3a7cc3"></path><path d="M-10.5 262.5L10.5 262.5L31.5 241.5L52.5 241.5L73.5 241.5L94.5 241.5L115.5 220.5L136.5 199.5L157.5 199.5" stroke="#3a7cc3" stroke-width="3.5"></path><path d="M152.25 199.5 a5.25 5.25 0 1 0 10.5 0 a5.25 5.25 0 1 0 -10.5 0z" fill="#3a7cc3"></path><path d="M199.5 493.5L220.5 472.5L241.5 472.5L262.5 472.5L283.5 472.5L304.5 493.5M73.5 472.5L94.5 472.5L115.5 472.5L136.5 472.5M409.5 535.5L430.5 514.5L451.5 514.5L472.5 514.5M262.5 493.5L283.5 493.5M346.5 514.5L367.5 514.5L388.5 514.5L409.5 514.5M-10.5 451.5L10.5 451.5L31.5 472.5L52.5 472.5L73.5 472.5L94.5 493.5L115.5 493.5L136.5 493.5L157.5 493.5L178.5 493.5L199.5 493.5L220.5 493.5L241.5 493.5L262.5 493.5L283.5 514.5L304.5 514.5L325.5 514.5L346.5 514.5L367.5 535.5L388.5 535.5L409.5 535.5L430.5 535.5L451.5 535.5L472.5 535.5" stroke="rgba(12, 186, 70, 1)" stroke-width="3.5"></path><path d="M467.25 535.5 a5.25 5.25 0 1 0 10.5 0 a5.25 5.25 0 1 0 -10.5 0zM299.25 493.5 a5.25 5.25 0 1 0 10.5 0 a5.25 5.25 0 1 0 -10.5 0zM131.25 472.5 a5.25 5.25 0 1 0 10.5 0 a5.25 5.25 0 1 0 -10.5 0zM467.25 514.5 a5.25 5.25 0 1 0 10.5 0 a5.25 5.25 0 1 0 -10.5 0zM278.25 493.5 a5.25 5.25 0 1 0 10.5 0 a5.25 5.25 0 1 0 -10.5 0zM404.25 514.5 a5.25 5.25 0 1 0 10.5 0 a5.25 5.25 0 1 0 -10.5 0z" fill="rgba(12, 186, 70, 1)"></path><path d="M-10.5 241.5L10.5 241.5L31.5 220.5L52.5 220.5L73.5 220.5L94.5 220.5L115.5 199.5L136.5 178.5L157.5 178.5" stroke="rgba(12, 186, 70, 1)" stroke-width="3.5"></path><path d="M152.25 178.5 a5.25 5.25 0 1 0 10.5 0 a5.25 5.25 0 1 0 -10.5 0z" fill="rgba(12, 186, 70, 1)"></path><path d="M514.5 556.5L535.5 577.5L556.5 598.5L577.5 598.5L598.5 598.5L619.5 598.5L640.5 598.5L661.5 598.5L682.5 598.5L703.5 598.5L724.5 598.5L745.5 598.5L766.5 598.5M493.5 556.5L514.5 535.5L535.5 535.5L556.5 535.5L577.5 535.5M577.5 577.5L598.5 556.5M115.5 514.5L136.5 535.5L157.5 535.5L178.5 535.5L199.5 535.5L220.5 535.5M535.5 556.5L556.5 556.5M682.5 577.5L703.5 556.5L724.5 556.5L745.5 556.5L766.5 556.5L787.5 556.5L808.5 556.5L829.5 556.5L850.5 556.5L871.5 556.5L892.5 556.5L913.5 556.5L934.5 535.5M640.5 577.5L661.5 556.5L682.5 556.5L703.5 535.5M388.5 556.5L409.5 577.5L430.5 577.5L451.5 577.5L472.5 577.5L493.5 577.5L514.5 577.5L535.5 598.5L556.5 619.5L577.5 619.5L598.5 619.5L619.5 619.5M787.5 577.5L808.5 598.5L829.5 598.5L850.5 619.5L871.5 640.5M325.5 535.5L346.5 556.5L367.5 577.5L388.5 577.5L409.5 598.5M-10.5 472.5L10.5 472.5L31.5 493.5L52.5 493.5L73.5 493.5L94.5 514.5L115.5 514.5L136.5 514.5L157.5 514.5L178.5 514.5L199.5 514.5L220.5 514.5L241.5 514.5L262.5 514.5L283.5 535.5L304.5 535.5L325.5 535.5L346.5 535.5L367.5 556.5L388.5 556.5L409.5 556.5L430.5 556.5L451.5 556.5L472.5 556.5L493.5 556.5L514.5 556.5L535.5 556.5L556.5 577.5L577.5 577.5L598.5 577.5L619.5 577.5L640.5 577.5L661.5 577.5L682.5 577.5L703.5 577.5L724.5 577.5L745.5 577.5L766.5 577.5L787.5 577.5L808.5 577.5L829.5 577.5L850.5 598.5" stroke="#3a7cc3" stroke-width="3.5"></path><path d="M845.25 598.5 a5.25 5.25 0 1 0 10.5 0 a5.25 5.25 0 1 0 -10.5 0zM761.25 598.5 a5.25 5.25 0 1 0 10.5 0 a5.25 5.25 0 1 0 -10.5 0zM572.25 535.5 a5.25 5.25 0 1 0 10.5 0 a5.25 5.25 0 1 0 -10.5 0zM593.25 556.5 a5.25 5.25 0 1 0 10.5 0 a5.25 5.25 0 1 0 -10.5 0zM215.25 535.5 a5.25 5.25 0 1 0 10.5 0 a5.25 5.25 0 1 0 -10.5 0zM551.25 556.5 a5.25 5.25 0 1 0 10.5 0 a5.25 5.25 0 1 0 -10.5 0zM929.25 535.5 a5.25 5.25 0 1 0 10.5 0 a5.25 5.25 0 1 0 -10.5 0zM698.25 535.5 a5.25 5.25 0 1 0 10.5 0 a5.25 5.25 0 1 0 -10.5 0zM614.25 619.5 a5.25 5.25 0 1 0 10.5 0 a5.25 5.25 0 1 0 -10.5 0zM866.25 640.5 a5.25 5.25 0 1 0 10.5 0 a5.25 5.25 0 1 0 -10.5 0zM404.25 598.5 a5.25 5.25 0 1 0 10.5 0 a5.25 5.25 0 1 0 -10.5 0z" fill="#3a7cc3"></path><path d="M262.5 157.5L283.5 157.5M178.5 157.5L199.5 178.5L220.5 178.5M52.5 199.5L73.5 199.5L94.5 199.5M535.5 136.5L556.5 157.5L577.5 157.5L598.5 157.5L619.5 136.5L640.5 136.5L661.5 136.5L682.5 136.5L703.5 136.5L724.5 136.5L745.5 136.5M472.5 136.5L493.5 157.5L514.5 157.5L535.5 157.5M451.5 157.5L472.5 157.5M-10.5 220.5L10.5 220.5L31.5 199.5L52.5 199.5L73.5 178.5L94.5 178.5L115.5 178.5L136.5 157.5L157.5 157.5L178.5 157.5L199.5 157.5L220.5 157.5L241.5 157.5L262.5 157.5L283.5 178.5L304.5 178.5L325.5 178.5L346.5 178.5L367.5 178.5L388.5 178.5L409.5 178.5L430.5 178.5L451.5 157.5L472.5 136.5L493.5 136.5L514.5 136.5L535.5 136.5L556.5 136.5L577.5 136.5" stroke="#dd1133" stroke-width="3.5"></path><path d="M572.25 136.5 a5.25 5.25 0 1 0 10.5 0 a5.25 5.25 0 1 0 -10.5 0zM278.25 157.5 a5.25 5.25 0 1 0 10.5 0 a5.25 5.25 0 1 0 -10.5 0zM215.25 178.5 a5.25 5.25 0 1 0 10.5 0 a5.25 5.25 0 1 0 -10.5 0zM89.25 199.5 a5.25 5.25 0 1 0 10.5 0 a5.25 5.25 0 1 0 -10.5 0zM740.25 136.5 a5.25 5.25 0 1 0 10.5 0 a5.25 5.25 0 1 0 -10.5 0zM530.25 157.5 a5.25 5.25 0 1 0 10.5 0 a5.25 5.25 0 1 0 -10.5 0zM467.25 157.5 a5.25 5.25 0 1 0 10.5 0 a5.25 5.25 0 1 0 -10.5 0z" fill="#dd1133"></path><path d="M52.5 514.5L73.5 535.5M-10.5 493.5L10.5 493.5L31.5 514.5L52.5 514.5L73.5 514.5L94.5 535.5" stroke="#dd1133" stroke-width="3.5"></path><path d="M89.25 535.5 a5.25 5.25 0 1 0 10.5 0 a5.25 5.25 0 1 0 -10.5 0zM68.25 535.5 a5.25 5.25 0 1 0 10.5 0 a5.25 5.25 0 1 0 -10.5 0z" fill="#dd1133"></path><path d="M367.5 157.5L388.5 136.5L409.5 136.5L430.5 136.5M346.5 157.5L367.5 136.5M493.5 115.5L514.5 94.5L535.5 94.5M661.5 115.5L682.5 94.5L703.5 73.5L724.5 73.5M724.5 94.5L745.5 115.5L766.5 115.5L787.5 115.5M283.5 136.5L304.5 136.5L325.5 136.5L346.5 136.5M913.5 115.5L934.5 94.5L955.5 94.5L976.5 94.5M598.5 115.5L619.5 94.5L640.5 94.5L661.5 94.5L682.5 73.5L703.5 52.5L724.5 52.5L745.5 52.5L766.5 52.5L787.5 52.5L808.5 52.5L829.5 52.5L850.5 52.5L871.5 52.5L892.5 52.5L913.5 52.5M703.5 115.5L724.5 115.5M892.5 115.5L913.5 94.5M745.5 94.5L766.5 73.5L787.5 73.5M-10.5 199.5L10.5 199.5L31.5 178.5L52.5 178.5L73.5 157.5L94.5 157.5L115.5 157.5L136.5 136.5L157.5 136.5L178.5 136.5L199.5 136.5L220.5 136.5L241.5 136.5L262.5 136.5L283.5 136.5L304.5 157.5L325.5 157.5L346.5 157.5L367.5 157.5L388.5 157.5L409.5 157.5L430.5 157.5L451.5 136.5L472.5 115.5L493.5 115.5L514.5 115.5L535.5 115.5L556.5 115.5L577.5 115.5L598.5 115.5L619.5 115.5L640.5 115.5L661.5 115.5L682.5 115.5L703.5 115.5L724.5 94.5L745.5 94.5L766.5 94.5L787.5 94.5L808.5 94.5L829.5 94.5L850.5 94.5L871.5 115.5L892.5 115.5L913.5 115.5L934.5 115.5" stroke="#3a7cc3" stroke-width="3.5"></path><path d="M929.25 115.5 a5.25 5.25 0 1 0 10.5 0 a5.25 5.25 0 1 0 -10.5 0zM425.25 136.5 a5.25 5.25 0 1 0 10.5 0 a5.25 5.25 0 1 0 -10.5 0zM362.25 136.5 a5.25 5.25 0 1 0 10.5 0 a5.25 5.25 0 1 0 -10.5 0zM530.25 94.5 a5.25 5.25 0 1 0 10.5 0 a5.25 5.25 0 1 0 -10.5 0zM719.25 73.5 a5.25 5.25 0 1 0 10.5 0 a5.25 5.25 0 1 0 -10.5 0zM782.25 115.5 a5.25 5.25 0 1 0 10.5 0 a5.25 5.25 0 1 0 -10.5 0zM341.25 136.5 a5.25 5.25 0 1 0 10.5 0 a5.25 5.25 0 1 0 -10.5 0zM971.25 94.5 a5.25 5.25 0 1 0 10.5 0 a5.25 5.25 0 1 0 -10.5 0zM908.25 52.5 a5.25 5.25 0 1 0 10.5 0 a5.25 5.25 0 1 0 -10.5 0zM719.25 115.5 a5.25 5.25 0 1 0 10.5 0 a5.25 5.25 0 1 0 -10.5 0zM908.25 94.5 a5.25 5.25 0 1 0 10.5 0 a5.25 5.25 0 1 0 -10.5 0zM782.25 73.5 a5.25 5.25 0 1 0 10.5 0 a5.25 5.25 0 1 0 -10.5 0z" fill="#3a7cc3"></path><path d="M31.5 535.5L52.5 535.5M157.5 556.5L178.5 577.5L199.5 577.5M115.5 556.5L136.5 577.5L157.5 577.5L178.5 598.5L199.5 598.5M-10.5 514.5L10.5 514.5L31.5 535.5L52.5 556.5L73.5 556.5L94.5 556.5L115.5 556.5L136.5 556.5L157.5 556.5L178.5 556.5" stroke="#3a7cc3" stroke-width="3.5"></path><path d="M173.25 556.5 a5.25 5.25 0 1 0 10.5 0 a5.25 5.25 0 1 0 -10.5 0zM47.25 535.5 a5.25 5.25 0 1 0 10.5 0 a5.25 5.25 0 1 0 -10.5 0zM194.25 577.5 a5.25 5.25 0 1 0 10.5 0 a5.25 5.25 0 1 0 -10.5 0zM194.25 598.5 a5.25 5.25 0 1 0 10.5 0 a5.25 5.25 0 1 0 -10.5 0z" fill="#3a7cc3"></path><path d="M31.5 157.5L52.5 136.5M409.5 115.5L430.5 94.5L451.5 94.5L472.5 94.5M136.5 115.5L157.5 94.5L178.5 94.5L199.5 94.5L220.5 94.5L241.5 94.5L262.5 94.5L283.5 94.5L304.5 94.5M346.5 115.5L367.5 94.5L388.5 94.5L409.5 94.5M325.5 115.5L346.5 94.5L367.5 73.5M-10.5 178.5L10.5 178.5L31.5 157.5L52.5 157.5L73.5 136.5L94.5 136.5L115.5 136.5L136.5 115.5L157.5 115.5L178.5 115.5L199.5 115.5L220.5 115.5L241.5 115.5L262.5 115.5L283.5 115.5L304.5 115.5L325.5 115.5L346.5 115.5L367.5 115.5L388.5 115.5L409.5 115.5L430.5 115.5" stroke="rgba(159, 218, 23, 1)" stroke-width="3.5"></path><path d="M425.25 115.5 a5.25 5.25 0 1 0 10.5 0 a5.25 5.25 0 1 0 -10.5 0zM47.25 136.5 a5.25 5.25 0 1 0 10.5 0 a5.25 5.25 0 1 0 -10.5 0zM467.25 94.5 a5.25 5.25 0 1 0 10.5 0 a5.25 5.25 0 1 0 -10.5 0zM299.25 94.5 a5.25 5.25 0 1 0 10.5 0 a5.25 5.25 0 1 0 -10.5 0zM404.25 94.5 a5.25 5.25 0 1 0 10.5 0 a5.25 5.25 0 1 0 -10.5 0zM362.25 73.5 a5.25 5.25 0 1 0 10.5 0 a5.25 5.25 0 1 0 -10.5 0z" fill="rgba(159, 218, 23, 1)"></path></g></g><defs><mask id="SvgjsMask1025"><rect width="1600" height="700" fill="#ffffff"></rect></mask><mask id="SvgjsMask1026"><rect width="1600" height="700" fill="white"></rect><path d="M112.87 346.5 a2.63 2.63 0 1 0 5.26 0 a2.63 2.63 0 1 0 -5.26 0zM91.87 325.5 a2.63 2.63 0 1 0 5.26 0 a2.63 2.63 0 1 0 -5.26 0zM70.87 325.5 a2.63 2.63 0 1 0 5.26 0 a2.63 2.63 0 1 0 -5.26 0zM49.87 325.5 a2.63 2.63 0 1 0 5.26 0 a2.63 2.63 0 1 0 -5.26 0z" fill="black"></path><path d="M553.87 367.5 a2.63 2.63 0 1 0 5.26 0 a2.63 2.63 0 1 0 -5.26 0zM427.87 367.5 a2.63 2.63 0 1 0 5.26 0 a2.63 2.63 0 1 0 -5.26 0zM469.87 409.5 a2.63 2.63 0 1 0 5.26 0 a2.63 2.63 0 1 0 -5.26 0zM112.87 388.5 a2.63 2.63 0 1 0 5.26 0 a2.63 2.63 0 1 0 -5.26 0zM385.87 346.5 a2.63 2.63 0 1 0 5.26 0 a2.63 2.63 0 1 0 -5.26 0zM343.87 346.5 a2.63 2.63 0 1 0 5.26 0 a2.63 2.63 0 1 0 -5.26 0zM511.87 388.5 a2.63 2.63 0 1 0 5.26 0 a2.63 2.63 0 1 0 -5.26 0zM595.87 346.5 a2.63 2.63 0 1 0 5.26 0 a2.63 2.63 0 1 0 -5.26 0z" fill="black"></path><path d="M952.87 325.5 a2.63 2.63 0 1 0 5.26 0 a2.63 2.63 0 1 0 -5.26 0zM490.87 346.5 a2.63 2.63 0 1 0 5.26 0 a2.63 2.63 0 1 0 -5.26 0zM532.87 283.5 a2.63 2.63 0 1 0 5.26 0 a2.63 2.63 0 1 0 -5.26 0zM889.87 346.5 a2.63 2.63 0 1 0 5.26 0 a2.63 2.63 0 1 0 -5.26 0zM973.87 346.5 a2.63 2.63 0 1 0 5.26 0 a2.63 2.63 0 1 0 -5.26 0zM574.87 325.5 a2.63 2.63 0 1 0 5.26 0 a2.63 2.63 0 1 0 -5.26 0zM259.87 346.5 a2.63 2.63 0 1 0 5.26 0 a2.63 2.63 0 1 0 -5.26 0zM301.87 304.5 a2.63 2.63 0 1 0 5.26 0 a2.63 2.63 0 1 0 -5.26 0zM385.87 304.5 a2.63 2.63 0 1 0 5.26 0 a2.63 2.63 0 1 0 -5.26 0zM658.87 325.5 a2.63 2.63 0 1 0 5.26 0 a2.63 2.63 0 1 0 -5.26 0zM973.87 367.5 a2.63 2.63 0 1 0 5.26 0 a2.63 2.63 0 1 0 -5.26 0zM889.87 283.5 a2.63 2.63 0 1 0 5.26 0 a2.63 2.63 0 1 0 -5.26 0z" fill="black"></path><path d="M364.87 409.5 a2.63 2.63 0 1 0 5.26 0 a2.63 2.63 0 1 0 -5.26 0zM70.87 388.5 a2.63 2.63 0 1 0 5.26 0 a2.63 2.63 0 1 0 -5.26 0zM49.87 388.5 a2.63 2.63 0 1 0 5.26 0 a2.63 2.63 0 1 0 -5.26 0z" fill="black"></path><path d="M154.87 241.5 a2.63 2.63 0 1 0 5.26 0 a2.63 2.63 0 1 0 -5.26 0zM217.87 262.5 a2.63 2.63 0 1 0 5.26 0 a2.63 2.63 0 1 0 -5.26 0zM196.87 304.5 a2.63 2.63 0 1 0 5.26 0 a2.63 2.63 0 1 0 -5.26 0zM112.87 283.5 a2.63 2.63 0 1 0 5.26 0 a2.63 2.63 0 1 0 -5.26 0z" fill="black"></path><path d="M364.87 430.5 a2.63 2.63 0 1 0 5.26 0 a2.63 2.63 0 1 0 -5.26 0z" fill="black"></path><path d="M889.87 157.5 a2.63 2.63 0 1 0 5.26 0 a2.63 2.63 0 1 0 -5.26 0zM574.87 220.5 a2.63 2.63 0 1 0 5.26 0 a2.63 2.63 0 1 0 -5.26 0zM532.87 241.5 a2.63 2.63 0 1 0 5.26 0 a2.63 2.63 0 1 0 -5.26 0zM406.87 220.5 a2.63 2.63 0 1 0 5.26 0 a2.63 2.63 0 1 0 -5.26 0zM931.87 178.5 a2.63 2.63 0 1 0 5.26 0 a2.63 2.63 0 1 0 -5.26 0zM637.87 157.5 a2.63 2.63 0 1 0 5.26 0 a2.63 2.63 0 1 0 -5.26 0zM259.87 178.5 a2.63 2.63 0 1 0 5.26 0 a2.63 2.63 0 1 0 -5.26 0zM910.87 136.5 a2.63 2.63 0 1 0 5.26 0 a2.63 2.63 0 1 0 -5.26 0zM721.87 199.5 a2.63 2.63 0 1 0 5.26 0 a2.63 2.63 0 1 0 -5.26 0zM973.87 220.5 a2.63 2.63 0 1 0 5.26 0 a2.63 2.63 0 1 0 -5.26 0zM679.87 199.5 a2.63 2.63 0 1 0 5.26 0 a2.63 2.63 0 1 0 -5.26 0zM322.87 220.5 a2.63 2.63 0 1 0 5.26 0 a2.63 2.63 0 1 0 -5.26 0z" fill="black"></path><path d="M427.87 472.5 a2.63 2.63 0 1 0 5.26 0 a2.63 2.63 0 1 0 -5.26 0zM154.87 472.5 a2.63 2.63 0 1 0 5.26 0 a2.63 2.63 0 1 0 -5.26 0zM448.87 451.5 a2.63 2.63 0 1 0 5.26 0 a2.63 2.63 0 1 0 -5.26 0zM385.87 493.5 a2.63 2.63 0 1 0 5.26 0 a2.63 2.63 0 1 0 -5.26 0zM406.87 451.5 a2.63 2.63 0 1 0 5.26 0 a2.63 2.63 0 1 0 -5.26 0zM364.87 493.5 a2.63 2.63 0 1 0 5.26 0 a2.63 2.63 0 1 0 -5.26 0z" fill="black"></path><path d="M154.87 199.5 a2.63 2.63 0 1 0 5.26 0 a2.63 2.63 0 1 0 -5.26 0z" fill="black"></path><path d="M469.87 535.5 a2.63 2.63 0 1 0 5.26 0 a2.63 2.63 0 1 0 -5.26 0zM301.87 493.5 a2.63 2.63 0 1 0 5.26 0 a2.63 2.63 0 1 0 -5.26 0zM133.87 472.5 a2.63 2.63 0 1 0 5.26 0 a2.63 2.63 0 1 0 -5.26 0zM469.87 514.5 a2.63 2.63 0 1 0 5.26 0 a2.63 2.63 0 1 0 -5.26 0zM280.87 493.5 a2.63 2.63 0 1 0 5.26 0 a2.63 2.63 0 1 0 -5.26 0zM406.87 514.5 a2.63 2.63 0 1 0 5.26 0 a2.63 2.63 0 1 0 -5.26 0z" fill="black"></path><path d="M154.87 178.5 a2.63 2.63 0 1 0 5.26 0 a2.63 2.63 0 1 0 -5.26 0z" fill="black"></path><path d="M847.87 598.5 a2.63 2.63 0 1 0 5.26 0 a2.63 2.63 0 1 0 -5.26 0zM763.87 598.5 a2.63 2.63 0 1 0 5.26 0 a2.63 2.63 0 1 0 -5.26 0zM574.87 535.5 a2.63 2.63 0 1 0 5.26 0 a2.63 2.63 0 1 0 -5.26 0zM595.87 556.5 a2.63 2.63 0 1 0 5.26 0 a2.63 2.63 0 1 0 -5.26 0zM217.87 535.5 a2.63 2.63 0 1 0 5.26 0 a2.63 2.63 0 1 0 -5.26 0zM553.87 556.5 a2.63 2.63 0 1 0 5.26 0 a2.63 2.63 0 1 0 -5.26 0zM931.87 535.5 a2.63 2.63 0 1 0 5.26 0 a2.63 2.63 0 1 0 -5.26 0zM700.87 535.5 a2.63 2.63 0 1 0 5.26 0 a2.63 2.63 0 1 0 -5.26 0zM616.87 619.5 a2.63 2.63 0 1 0 5.26 0 a2.63 2.63 0 1 0 -5.26 0zM868.87 640.5 a2.63 2.63 0 1 0 5.26 0 a2.63 2.63 0 1 0 -5.26 0zM406.87 598.5 a2.63 2.63 0 1 0 5.26 0 a2.63 2.63 0 1 0 -5.26 0z" fill="black"></path><path d="M574.87 136.5 a2.63 2.63 0 1 0 5.26 0 a2.63 2.63 0 1 0 -5.26 0zM280.87 157.5 a2.63 2.63 0 1 0 5.26 0 a2.63 2.63 0 1 0 -5.26 0zM217.87 178.5 a2.63 2.63 0 1 0 5.26 0 a2.63 2.63 0 1 0 -5.26 0zM91.87 199.5 a2.63 2.63 0 1 0 5.26 0 a2.63 2.63 0 1 0 -5.26 0zM742.87 136.5 a2.63 2.63 0 1 0 5.26 0 a2.63 2.63 0 1 0 -5.26 0zM532.87 157.5 a2.63 2.63 0 1 0 5.26 0 a2.63 2.63 0 1 0 -5.26 0zM469.87 157.5 a2.63 2.63 0 1 0 5.26 0 a2.63 2.63 0 1 0 -5.26 0z" fill="black"></path><path d="M91.87 535.5 a2.63 2.63 0 1 0 5.26 0 a2.63 2.63 0 1 0 -5.26 0zM70.87 535.5 a2.63 2.63 0 1 0 5.26 0 a2.63 2.63 0 1 0 -5.26 0z" fill="black"></path><path d="M931.87 115.5 a2.63 2.63 0 1 0 5.26 0 a2.63 2.63 0 1 0 -5.26 0zM427.87 136.5 a2.63 2.63 0 1 0 5.26 0 a2.63 2.63 0 1 0 -5.26 0zM364.87 136.5 a2.63 2.63 0 1 0 5.26 0 a2.63 2.63 0 1 0 -5.26 0zM532.87 94.5 a2.63 2.63 0 1 0 5.26 0 a2.63 2.63 0 1 0 -5.26 0zM721.87 73.5 a2.63 2.63 0 1 0 5.26 0 a2.63 2.63 0 1 0 -5.26 0zM784.87 115.5 a2.63 2.63 0 1 0 5.26 0 a2.63 2.63 0 1 0 -5.26 0zM343.87 136.5 a2.63 2.63 0 1 0 5.26 0 a2.63 2.63 0 1 0 -5.26 0zM973.87 94.5 a2.63 2.63 0 1 0 5.26 0 a2.63 2.63 0 1 0 -5.26 0zM910.87 52.5 a2.63 2.63 0 1 0 5.26 0 a2.63 2.63 0 1 0 -5.26 0zM721.87 115.5 a2.63 2.63 0 1 0 5.26 0 a2.63 2.63 0 1 0 -5.26 0zM910.87 94.5 a2.63 2.63 0 1 0 5.26 0 a2.63 2.63 0 1 0 -5.26 0zM784.87 73.5 a2.63 2.63 0 1 0 5.26 0 a2.63 2.63 0 1 0 -5.26 0z" fill="black"></path><path d="M175.87 556.5 a2.63 2.63 0 1 0 5.26 0 a2.63 2.63 0 1 0 -5.26 0zM49.87 535.5 a2.63 2.63 0 1 0 5.26 0 a2.63 2.63 0 1 0 -5.26 0zM196.87 577.5 a2.63 2.63 0 1 0 5.26 0 a2.63 2.63 0 1 0 -5.26 0zM196.87 598.5 a2.63 2.63 0 1 0 5.26 0 a2.63 2.63 0 1 0 -5.26 0z" fill="black"></path><path d="M427.87 115.5 a2.63 2.63 0 1 0 5.26 0 a2.63 2.63 0 1 0 -5.26 0zM49.87 136.5 a2.63 2.63 0 1 0 5.26 0 a2.63 2.63 0 1 0 -5.26 0zM469.87 94.5 a2.63 2.63 0 1 0 5.26 0 a2.63 2.63 0 1 0 -5.26 0zM301.87 94.5 a2.63 2.63 0 1 0 5.26 0 a2.63 2.63 0 1 0 -5.26 0zM406.87 94.5 a2.63 2.63 0 1 0 5.26 0 a2.63 2.63 0 1 0 -5.26 0zM364.87 73.5 a2.63 2.63 0 1 0 5.26 0 a2.63 2.63 0 1 0 -5.26 0z" fill="black"></path></mask></defs></svg>