<svg xmlns="http://www.w3.org/2000/svg" version="1.1" xmlns:xlink="http://www.w3.org/1999/xlink" xmlns:svgjs="http://svgjs.dev/svgjs" width="1440" height="560" preserveAspectRatio="none" viewBox="0 0 1440 560"><g mask="url(&quot;#SvgjsMask1003&quot;)" fill="none"><rect width="1440" height="560" x="0" y="0" fill="url(&quot;#SvgjsLinearGradient1004&quot;)"></rect><g mask="url(&quot;#SvgjsMask1005&quot;)"><path d="M299 377L299 325L247 273L13 273" stroke-width="4.33" stroke="#3a7cc3"></path><path d="M292.5 377 a6.5 6.5 0 1 0 13 0 a6.5 6.5 0 1 0 -13 0zM6.5 273 a6.5 6.5 0 1 0 13 0 a6.5 6.5 0 1 0 -13 0z" fill="#3a7cc3"></path><path d="M65 39L247 221L247 247L533 533" stroke-width="4.33" stroke="#3a7cc3"></path><path d="M58.5 39 a6.5 6.5 0 1 0 13 0 a6.5 6.5 0 1 0 -13 0zM526.5 533 a6.5 6.5 0 1 0 13 0 a6.5 6.5 0 1 0 -13 0z" fill="#3a7cc3"></path><path d="M1079 195L1183 91L1261 91L1443 273L1443 403" stroke-width="4.33" stroke="#3a7cc3"></path><path d="M1072.5 195 a6.5 6.5 0 1 0 13 0 a6.5 6.5 0 1 0 -13 0zM1436.5 403 a6.5 6.5 0 1 0 13 0 a6.5 6.5 0 1 0 -13 0z" fill="#3a7cc3"></path><path d="M403 481L455 481L533 559L585 559L637 507L897 507" stroke-width="4.33" stroke="#3a7cc3"></path><path d="M396.5 481 a6.5 6.5 0 1 0 13 0 a6.5 6.5 0 1 0 -13 0zM890.5 507 a6.5 6.5 0 1 0 13 0 a6.5 6.5 0 1 0 -13 0z" fill="#3a7cc3"></path><path d="M1339 559L1391 507L1391 455L1131 195L1105 195L1053 247L1053 299" stroke-width="4.33" stroke="#3a7cc3"></path><path d="M1332.5 559 a6.5 6.5 0 1 0 13 0 a6.5 6.5 0 1 0 -13 0zM1046.5 299 a6.5 6.5 0 1 0 13 0 a6.5 6.5 0 1 0 -13 0z" fill="#3a7cc3"></path><path d="M1287 403L1287 559" stroke-width="4.33" stroke="#3a7cc3"></path><path d="M1280.5 403 a6.5 6.5 0 1 0 13 0 a6.5 6.5 0 1 0 -13 0zM1280.5 559 a6.5 6.5 0 1 0 13 0 a6.5 6.5 0 1 0 -13 0z" fill="#3a7cc3"></path><path d="M741 65L429 65L377 117L351 117L247 13" stroke-width="4.33" stroke="#3a7cc3"></path><path d="M734.5 65 a6.5 6.5 0 1 0 13 0 a6.5 6.5 0 1 0 -13 0zM240.5 13 a6.5 6.5 0 1 0 13 0 a6.5 6.5 0 1 0 -13 0z" fill="#3a7cc3"></path><path d="M845 39L1027 221L1027 533" stroke-width="4.33" stroke="#3a7cc3"></path><path d="M838.5 39 a6.5 6.5 0 1 0 13 0 a6.5 6.5 0 1 0 -13 0zM1020.5 533 a6.5 6.5 0 1 0 13 0 a6.5 6.5 0 1 0 -13 0z" fill="#3a7cc3"></path><path d="M117 429L117 507L169 559L273 559L351 481L377 481L403 507L455 507L507 559" stroke-width="4.33" stroke="#3a7cc3"></path><path d="M110.5 429 a6.5 6.5 0 1 0 13 0 a6.5 6.5 0 1 0 -13 0zM500.5 559 a6.5 6.5 0 1 0 13 0 a6.5 6.5 0 1 0 -13 0z" fill="#3a7cc3"></path><path d="M1365 507L1365 455L1313 403" stroke-width="4.33" stroke="#3a7cc3"></path><path d="M1358.5 507 a6.5 6.5 0 1 0 13 0 a6.5 6.5 0 1 0 -13 0zM1306.5 403 a6.5 6.5 0 1 0 13 0 a6.5 6.5 0 1 0 -13 0z" fill="#3a7cc3"></path><path d="M455 247L273 247" stroke-width="4.33" stroke="#3a7cc3"></path><path d="M448.5 247 a6.5 6.5 0 1 0 13 0 a6.5 6.5 0 1 0 -13 0zM266.5 247 a6.5 6.5 0 1 0 13 0 a6.5 6.5 0 1 0 -13 0z" fill="#3a7cc3"></path><path d="M793 351L1001 351" stroke-width="4.33" stroke="#3a7cc3"></path><path d="M786.5 351 a6.5 6.5 0 1 0 13 0 a6.5 6.5 0 1 0 -13 0zM994.5 351 a6.5 6.5 0 1 0 13 0 a6.5 6.5 0 1 0 -13 0z" fill="#3a7cc3"></path><path d="M1079 507L1131 559L1261 559" stroke-width="4.33" stroke="#3a7cc3"></path><path d="M1072.5 507 a6.5 6.5 0 1 0 13 0 a6.5 6.5 0 1 0 -13 0zM1254.5 559 a6.5 6.5 0 1 0 13 0 a6.5 6.5 0 1 0 -13 0z" fill="#3a7cc3"></path><path d="M273 117L325 117L429 221L767 221" stroke-width="4.33" stroke="#3a7cc3"></path><path d="M266.5 117 a6.5 6.5 0 1 0 13 0 a6.5 6.5 0 1 0 -13 0zM760.5 221 a6.5 6.5 0 1 0 13 0 a6.5 6.5 0 1 0 -13 0z" fill="#3a7cc3"></path><path d="M429 299L325 299L299 273" stroke-width="4.33" stroke="#3a7cc3"></path><path d="M422.5 299 a6.5 6.5 0 1 0 13 0 a6.5 6.5 0 1 0 -13 0zM292.5 273 a6.5 6.5 0 1 0 13 0 a6.5 6.5 0 1 0 -13 0z" fill="#3a7cc3"></path><path d="M455 195L429 169L403 169L377 143" stroke-width="4.33" stroke="#3a7cc3"></path><path d="M448.5 195 a6.5 6.5 0 1 0 13 0 a6.5 6.5 0 1 0 -13 0zM370.5 143 a6.5 6.5 0 1 0 13 0 a6.5 6.5 0 1 0 -13 0z" fill="#3a7cc3"></path><path d="M1131 221L1287 377" stroke-width="4.33" stroke="#3a7cc3"></path><path d="M1124.5 221 a6.5 6.5 0 1 0 13 0 a6.5 6.5 0 1 0 -13 0zM1280.5 377 a6.5 6.5 0 1 0 13 0 a6.5 6.5 0 1 0 -13 0z" fill="#3a7cc3"></path><path d="M1417 559L1443 533L1443 429L1365 351L1313 351L1131 169" stroke-width="4.33" stroke="#3a7cc3"></path><path d="M1410.5 559 a6.5 6.5 0 1 0 13 0 a6.5 6.5 0 1 0 -13 0zM1124.5 169 a6.5 6.5 0 1 0 13 0 a6.5 6.5 0 1 0 -13 0z" fill="#3a7cc3"></path><path d="M611 455L897 455L1001 559L1105 559" stroke-width="4.33" stroke="#3a7cc3"></path><path d="M604.5 455 a6.5 6.5 0 1 0 13 0 a6.5 6.5 0 1 0 -13 0zM1098.5 559 a6.5 6.5 0 1 0 13 0 a6.5 6.5 0 1 0 -13 0z" fill="#3a7cc3"></path><path d="M507 247L507 273L533 299L533 351L611 429L663 429L897 195L923 195" stroke-width="4.33" stroke="#3a7cc3"></path><path d="M500.5 247 a6.5 6.5 0 1 0 13 0 a6.5 6.5 0 1 0 -13 0zM916.5 195 a6.5 6.5 0 1 0 13 0 a6.5 6.5 0 1 0 -13 0z" fill="#3a7cc3"></path><path d="M1313 299L1313 169L1261 117L1183 117L1157 143L1157 169L1287 299" stroke-width="4.33" stroke="#3a7cc3"></path><path d="M1306.5 299 a6.5 6.5 0 1 0 13 0 a6.5 6.5 0 1 0 -13 0zM1280.5 299 a6.5 6.5 0 1 0 13 0 a6.5 6.5 0 1 0 -13 0z" fill="#3a7cc3"></path><path d="M143 247L221 247" stroke-width="4.33" stroke="#3a7cc3"></path><path d="M136.5 247 a6.5 6.5 0 1 0 13 0 a6.5 6.5 0 1 0 -13 0zM214.5 247 a6.5 6.5 0 1 0 13 0 a6.5 6.5 0 1 0 -13 0z" fill="#3a7cc3"></path><path d="M1131 377L1079 325L1079 247L1105 221" stroke-width="4.33" stroke="#3a7cc3"></path><path d="M1124.5 377 a6.5 6.5 0 1 0 13 0 a6.5 6.5 0 1 0 -13 0zM1098.5 221 a6.5 6.5 0 1 0 13 0 a6.5 6.5 0 1 0 -13 0z" fill="#3a7cc3"></path><path d="M1391 117L1443 65L1443 13" stroke-width="4.33" stroke="#3a7cc3"></path><path d="M1384.5 117 a6.5 6.5 0 1 0 13 0 a6.5 6.5 0 1 0 -13 0zM1436.5 13 a6.5 6.5 0 1 0 13 0 a6.5 6.5 0 1 0 -13 0z" fill="#3a7cc3"></path><path d="M1157 351L1261 455L1261 507" stroke-width="4.33" stroke="#3a7cc3"></path><path d="M1150.5 351 a6.5 6.5 0 1 0 13 0 a6.5 6.5 0 1 0 -13 0zM1254.5 507 a6.5 6.5 0 1 0 13 0 a6.5 6.5 0 1 0 -13 0z" fill="#3a7cc3"></path><path d="M273 143L325 143L403 221" stroke-width="4.33" stroke="#3a7cc3"></path><path d="M266.5 143 a6.5 6.5 0 1 0 13 0 a6.5 6.5 0 1 0 -13 0zM396.5 221 a6.5 6.5 0 1 0 13 0 a6.5 6.5 0 1 0 -13 0z" fill="#3a7cc3"></path><path d="M663 117L637 91L455 91L403 143" stroke-width="4.33" stroke="#3a7cc3"></path><path d="M656.5 117 a6.5 6.5 0 1 0 13 0 a6.5 6.5 0 1 0 -13 0zM396.5 143 a6.5 6.5 0 1 0 13 0 a6.5 6.5 0 1 0 -13 0z" fill="#3a7cc3"></path><path d="M1157 429L1209 429L1235 455L1235 481L1183 533L1131 533L1105 507L1105 377L1053 325" stroke-width="4.33" stroke="#3a7cc3"></path><path d="M1150.5 429 a6.5 6.5 0 1 0 13 0 a6.5 6.5 0 1 0 -13 0zM1046.5 325 a6.5 6.5 0 1 0 13 0 a6.5 6.5 0 1 0 -13 0z" fill="#3a7cc3"></path><path d="M247 117L247 91L169 13L13 13" stroke-width="4.33" stroke="#3a7cc3"></path><path d="M240.5 117 a6.5 6.5 0 1 0 13 0 a6.5 6.5 0 1 0 -13 0zM6.5 13 a6.5 6.5 0 1 0 13 0 a6.5 6.5 0 1 0 -13 0z" fill="#3a7cc3"></path><path d="M481 429L585 429" stroke-width="4.33" stroke="#3a7cc3"></path><path d="M474.5 429 a6.5 6.5 0 1 0 13 0 a6.5 6.5 0 1 0 -13 0zM578.5 429 a6.5 6.5 0 1 0 13 0 a6.5 6.5 0 1 0 -13 0z" fill="#3a7cc3"></path><path d="M897 429L975 507" stroke-width="4.33" stroke="#3a7cc3"></path><path d="M890.5 429 a6.5 6.5 0 1 0 13 0 a6.5 6.5 0 1 0 -13 0zM968.5 507 a6.5 6.5 0 1 0 13 0 a6.5 6.5 0 1 0 -13 0z" fill="#3a7cc3"></path><path d="M767 403L793 377L819 377L871 429" stroke-width="4.33" stroke="#3a7cc3"></path><path d="M760.5 403 a6.5 6.5 0 1 0 13 0 a6.5 6.5 0 1 0 -13 0zM864.5 429 a6.5 6.5 0 1 0 13 0 a6.5 6.5 0 1 0 -13 0z" fill="#3a7cc3"></path><path d="M1339 91L1417 13" stroke-width="4.33" stroke="#3a7cc3"></path><path d="M1332.5 91 a6.5 6.5 0 1 0 13 0 a6.5 6.5 0 1 0 -13 0zM1410.5 13 a6.5 6.5 0 1 0 13 0 a6.5 6.5 0 1 0 -13 0z" fill="#3a7cc3"></path><path d="M91 221L143 169L169 169L221 221" stroke-width="4.33" stroke="#3a7cc3"></path><path d="M84.5 221 a6.5 6.5 0 1 0 13 0 a6.5 6.5 0 1 0 -13 0zM214.5 221 a6.5 6.5 0 1 0 13 0 a6.5 6.5 0 1 0 -13 0z" fill="#3a7cc3"></path><path d="M897 299L923 325L949 325L975 299L975 195L793 13L741 13L715 39L663 39" stroke-width="4.33" stroke="#3a7cc3"></path><path d="M890.5 299 a6.5 6.5 0 1 0 13 0 a6.5 6.5 0 1 0 -13 0zM656.5 39 a6.5 6.5 0 1 0 13 0 a6.5 6.5 0 1 0 -13 0z" fill="#3a7cc3"></path><path d="M1053 351L1079 377L1079 429" stroke-width="4.33" stroke="#3a7cc3"></path><path d="M1046.5 351 a6.5 6.5 0 1 0 13 0 a6.5 6.5 0 1 0 -13 0zM1072.5 429 a6.5 6.5 0 1 0 13 0 a6.5 6.5 0 1 0 -13 0z" fill="#3a7cc3"></path><path d="M871 247L871 325" stroke-width="4.33" stroke="#3a7cc3"></path><path d="M864.5 247 a6.5 6.5 0 1 0 13 0 a6.5 6.5 0 1 0 -13 0zM864.5 325 a6.5 6.5 0 1 0 13 0 a6.5 6.5 0 1 0 -13 0z" fill="#3a7cc3"></path><path d="M533 455L585 507L585 533" stroke-width="4.33" stroke="#3a7cc3"></path><path d="M526.5 455 a6.5 6.5 0 1 0 13 0 a6.5 6.5 0 1 0 -13 0zM578.5 533 a6.5 6.5 0 1 0 13 0 a6.5 6.5 0 1 0 -13 0z" fill="#3a7cc3"></path><path d="M897 481L585 481L559 455" stroke-width="4.33" stroke="#3a7cc3"></path><path d="M890.5 481 a6.5 6.5 0 1 0 13 0 a6.5 6.5 0 1 0 -13 0zM552.5 455 a6.5 6.5 0 1 0 13 0 a6.5 6.5 0 1 0 -13 0z" fill="#3a7cc3"></path><path d="M1183 507L1131 507" stroke-width="4.33" stroke="#3a7cc3"></path><path d="M1176.5 507 a6.5 6.5 0 1 0 13 0 a6.5 6.5 0 1 0 -13 0zM1124.5 507 a6.5 6.5 0 1 0 13 0 a6.5 6.5 0 1 0 -13 0z" fill="#3a7cc3"></path><path d="M195 325L195 455L169 481L169 533" stroke-width="4.33" stroke="#3a7cc3"></path><path d="M188.5 325 a6.5 6.5 0 1 0 13 0 a6.5 6.5 0 1 0 -13 0zM162.5 533 a6.5 6.5 0 1 0 13 0 a6.5 6.5 0 1 0 -13 0z" fill="#3a7cc3"></path><path d="M1313 117L1313 13" stroke-width="4.33" stroke="#3a7cc3"></path><path d="M1306.5 117 a6.5 6.5 0 1 0 13 0 a6.5 6.5 0 1 0 -13 0zM1306.5 13 a6.5 6.5 0 1 0 13 0 a6.5 6.5 0 1 0 -13 0z" fill="#3a7cc3"></path><path d="M1001 39L975 13L819 13" stroke-width="4.33" stroke="#3a7cc3"></path><path d="M994.5 39 a6.5 6.5 0 1 0 13 0 a6.5 6.5 0 1 0 -13 0zM812.5 13 a6.5 6.5 0 1 0 13 0 a6.5 6.5 0 1 0 -13 0z" fill="#3a7cc3"></path><path d="M689 429L767 429L793 403L819 403L845 429" stroke-width="4.33" stroke="#3a7cc3"></path><path d="M682.5 429 a6.5 6.5 0 1 0 13 0 a6.5 6.5 0 1 0 -13 0zM838.5 429 a6.5 6.5 0 1 0 13 0 a6.5 6.5 0 1 0 -13 0z" fill="#3a7cc3"></path><path d="M559 325L559 273L585 247L793 247L897 143" stroke-width="4.33" stroke="#3a7cc3"></path><path d="M552.5 325 a6.5 6.5 0 1 0 13 0 a6.5 6.5 0 1 0 -13 0zM890.5 143 a6.5 6.5 0 1 0 13 0 a6.5 6.5 0 1 0 -13 0z" fill="#3a7cc3"></path><path d="M1339 481L1313 455L1313 429" stroke-width="4.33" stroke="#3a7cc3"></path><path d="M1332.5 481 a6.5 6.5 0 1 0 13 0 a6.5 6.5 0 1 0 -13 0zM1306.5 429 a6.5 6.5 0 1 0 13 0 a6.5 6.5 0 1 0 -13 0z" fill="#3a7cc3"></path><path d="M663 273L585 351L585 377" stroke-width="4.33" stroke="#3a7cc3"></path><path d="M656.5 273 a6.5 6.5 0 1 0 13 0 a6.5 6.5 0 1 0 -13 0zM578.5 377 a6.5 6.5 0 1 0 13 0 a6.5 6.5 0 1 0 -13 0z" fill="#3a7cc3"></path><path d="M1417 533L1391 559L1365 559" stroke-width="4.33" stroke="#3a7cc3"></path><path d="M1410.5 533 a6.5 6.5 0 1 0 13 0 a6.5 6.5 0 1 0 -13 0zM1358.5 559 a6.5 6.5 0 1 0 13 0 a6.5 6.5 0 1 0 -13 0z" fill="#3a7cc3"></path><path d="M1131 117L1209 39L1287 39" stroke-width="4.33" stroke="#3a7cc3"></path><path d="M1124.5 117 a6.5 6.5 0 1 0 13 0 a6.5 6.5 0 1 0 -13 0zM1280.5 39 a6.5 6.5 0 1 0 13 0 a6.5 6.5 0 1 0 -13 0z" fill="#3a7cc3"></path><path d="M1079 117L1079 169L1053 195L1027 195L871 39" stroke-width="4.33" stroke="#3a7cc3"></path><path d="M1072.5 117 a6.5 6.5 0 1 0 13 0 a6.5 6.5 0 1 0 -13 0zM864.5 39 a6.5 6.5 0 1 0 13 0 a6.5 6.5 0 1 0 -13 0z" fill="#3a7cc3"></path><path d="M1391 429L1391 403L1365 377L1339 377" stroke-width="4.33" stroke="#3a7cc3"></path><path d="M1384.5 429 a6.5 6.5 0 1 0 13 0 a6.5 6.5 0 1 0 -13 0zM1332.5 377 a6.5 6.5 0 1 0 13 0 a6.5 6.5 0 1 0 -13 0z" fill="#3a7cc3"></path><path d="M1105 91L1105 13" stroke-width="4.33" stroke="#3a7cc3"></path><path d="M1098.5 91 a6.5 6.5 0 1 0 13 0 a6.5 6.5 0 1 0 -13 0zM1098.5 13 a6.5 6.5 0 1 0 13 0 a6.5 6.5 0 1 0 -13 0z" fill="#3a7cc3"></path><path d="M975 65L975 117L1027 169L1053 169" stroke-width="4.33" stroke="#3a7cc3"></path><path d="M968.5 65 a6.5 6.5 0 1 0 13 0 a6.5 6.5 0 1 0 -13 0zM1046.5 169 a6.5 6.5 0 1 0 13 0 a6.5 6.5 0 1 0 -13 0z" fill="#3a7cc3"></path><path d="M481 169L481 117" stroke-width="4.33" stroke="#3a7cc3"></path><path d="M474.5 169 a6.5 6.5 0 1 0 13 0 a6.5 6.5 0 1 0 -13 0zM474.5 117 a6.5 6.5 0 1 0 13 0 a6.5 6.5 0 1 0 -13 0z" fill="#3a7cc3"></path><path d="M65 195L65 143L91 117L91 91L39 39L13 39" stroke-width="4.33" stroke="#3a7cc3"></path><path d="M58.5 195 a6.5 6.5 0 1 0 13 0 a6.5 6.5 0 1 0 -13 0zM6.5 39 a6.5 6.5 0 1 0 13 0 a6.5 6.5 0 1 0 -13 0z" fill="#3a7cc3"></path><path d="M169 325L195 299L247 299L273 325L273 429L221 481L195 481" stroke-width="4.33" stroke="#3a7cc3"></path><path d="M162.5 325 a6.5 6.5 0 1 0 13 0 a6.5 6.5 0 1 0 -13 0zM188.5 481 a6.5 6.5 0 1 0 13 0 a6.5 6.5 0 1 0 -13 0z" fill="#3a7cc3"></path><path d="M793 559L819 533L949 533L975 559" stroke-width="4.33" stroke="#3a7cc3"></path><path d="M786.5 559 a6.5 6.5 0 1 0 13 0 a6.5 6.5 0 1 0 -13 0zM968.5 559 a6.5 6.5 0 1 0 13 0 a6.5 6.5 0 1 0 -13 0z" fill="#3a7cc3"></path><path d="M429 13L429 39L377 91L351 91L273 13" stroke-width="4.33" stroke="#3a7cc3"></path><path d="M422.5 13 a6.5 6.5 0 1 0 13 0 a6.5 6.5 0 1 0 -13 0zM266.5 13 a6.5 6.5 0 1 0 13 0 a6.5 6.5 0 1 0 -13 0z" fill="#3a7cc3"></path><path d="M377 507L351 507L299 559" stroke-width="4.33" stroke="#3a7cc3"></path><path d="M370.5 507 a6.5 6.5 0 1 0 13 0 a6.5 6.5 0 1 0 -13 0zM292.5 559 a6.5 6.5 0 1 0 13 0 a6.5 6.5 0 1 0 -13 0z" fill="#3a7cc3"></path><path d="M1365 247L1391 247L1417 273L1417 377" stroke-width="4.33" stroke="#3a7cc3"></path><path d="M1358.5 247 a6.5 6.5 0 1 0 13 0 a6.5 6.5 0 1 0 -13 0zM1410.5 377 a6.5 6.5 0 1 0 13 0 a6.5 6.5 0 1 0 -13 0z" fill="#3a7cc3"></path><path d="M1001 377L1001 481" stroke-width="4.33" stroke="#3a7cc3"></path><path d="M994.5 377 a6.5 6.5 0 1 0 13 0 a6.5 6.5 0 1 0 -13 0zM994.5 481 a6.5 6.5 0 1 0 13 0 a6.5 6.5 0 1 0 -13 0z" fill="#3a7cc3"></path><path d="M273 481L273 455L351 377" stroke-width="4.33" stroke="#3a7cc3"></path><path d="M266.5 481 a6.5 6.5 0 1 0 13 0 a6.5 6.5 0 1 0 -13 0zM344.5 377 a6.5 6.5 0 1 0 13 0 a6.5 6.5 0 1 0 -13 0z" fill="#3a7cc3"></path><path d="M403 429L377 455L351 455L325 429" stroke-width="4.33" stroke="#3a7cc3"></path><path d="M396.5 429 a6.5 6.5 0 1 0 13 0 a6.5 6.5 0 1 0 -13 0zM318.5 429 a6.5 6.5 0 1 0 13 0 a6.5 6.5 0 1 0 -13 0z" fill="#3a7cc3"></path><path d="M897 221L949 273L949 299" stroke-width="4.33" stroke="#3a7cc3"></path><path d="M890.5 221 a6.5 6.5 0 1 0 13 0 a6.5 6.5 0 1 0 -13 0zM942.5 299 a6.5 6.5 0 1 0 13 0 a6.5 6.5 0 1 0 -13 0z" fill="#3a7cc3"></path><path d="M1313 507L1313 559" stroke-width="4.33" stroke="#3a7cc3"></path><path d="M1306.5 507 a6.5 6.5 0 1 0 13 0 a6.5 6.5 0 1 0 -13 0zM1306.5 559 a6.5 6.5 0 1 0 13 0 a6.5 6.5 0 1 0 -13 0z" fill="#3a7cc3"></path><path d="M611 559L637 533L689 533L715 559L767 559L793 533" stroke-width="4.33" stroke="#3a7cc3"></path><path d="M604.5 559 a6.5 6.5 0 1 0 13 0 a6.5 6.5 0 1 0 -13 0zM786.5 533 a6.5 6.5 0 1 0 13 0 a6.5 6.5 0 1 0 -13 0z" fill="#3a7cc3"></path><path d="M39 221L65 247L117 247" stroke-width="4.33" stroke="#3a7cc3"></path><path d="M32.5 221 a6.5 6.5 0 1 0 13 0 a6.5 6.5 0 1 0 -13 0zM110.5 247 a6.5 6.5 0 1 0 13 0 a6.5 6.5 0 1 0 -13 0z" fill="#3a7cc3"></path><path d="M1053 533L1053 481" stroke-width="4.33" stroke="#3a7cc3"></path><path d="M1046.5 533 a6.5 6.5 0 1 0 13 0 a6.5 6.5 0 1 0 -13 0zM1046.5 481 a6.5 6.5 0 1 0 13 0 a6.5 6.5 0 1 0 -13 0z" fill="#3a7cc3"></path><path d="M143 65L247 169L247 195L273 221L377 221" stroke-width="4.33" stroke="#3a7cc3"></path><path d="M136.5 65 a6.5 6.5 0 1 0 13 0 a6.5 6.5 0 1 0 -13 0zM370.5 221 a6.5 6.5 0 1 0 13 0 a6.5 6.5 0 1 0 -13 0z" fill="#3a7cc3"></path><path d="M91 299L91 455" stroke-width="4.33" stroke="#3a7cc3"></path><path d="M84.5 299 a6.5 6.5 0 1 0 13 0 a6.5 6.5 0 1 0 -13 0zM84.5 455 a6.5 6.5 0 1 0 13 0 a6.5 6.5 0 1 0 -13 0z" fill="#3a7cc3"></path><path d="M481 273L507 299L507 403" stroke-width="4.33" stroke="#3a7cc3"></path><path d="M474.5 273 a6.5 6.5 0 1 0 13 0 a6.5 6.5 0 1 0 -13 0zM500.5 403 a6.5 6.5 0 1 0 13 0 a6.5 6.5 0 1 0 -13 0z" fill="#3a7cc3"></path><path d="M169 39L169 65L221 117" stroke-width="4.33" stroke="#3a7cc3"></path><path d="M162.5 39 a6.5 6.5 0 1 0 13 0 a6.5 6.5 0 1 0 -13 0zM214.5 117 a6.5 6.5 0 1 0 13 0 a6.5 6.5 0 1 0 -13 0z" fill="#3a7cc3"></path><path d="M481 455L559 533" stroke-width="4.33" stroke="#3a7cc3"></path><path d="M474.5 455 a6.5 6.5 0 1 0 13 0 a6.5 6.5 0 1 0 -13 0zM552.5 533 a6.5 6.5 0 1 0 13 0 a6.5 6.5 0 1 0 -13 0z" fill="#3a7cc3"></path><path d="M325 481L299 481L247 533L221 533" stroke-width="4.33" stroke="#3a7cc3"></path><path d="M318.5 481 a6.5 6.5 0 1 0 13 0 a6.5 6.5 0 1 0 -13 0zM214.5 533 a6.5 6.5 0 1 0 13 0 a6.5 6.5 0 1 0 -13 0z" fill="#3a7cc3"></path><path d="M39 195L13 221L13 247" stroke-width="4.33" stroke="#3a7cc3"></path><path d="M32.5 195 a6.5 6.5 0 1 0 13 0 a6.5 6.5 0 1 0 -13 0zM6.5 247 a6.5 6.5 0 1 0 13 0 a6.5 6.5 0 1 0 -13 0z" fill="#3a7cc3"></path><path d="M1131 273L1131 325" stroke-width="4.33" stroke="#3a7cc3"></path><path d="M1124.5 273 a6.5 6.5 0 1 0 13 0 a6.5 6.5 0 1 0 -13 0zM1124.5 325 a6.5 6.5 0 1 0 13 0 a6.5 6.5 0 1 0 -13 0z" fill="#3a7cc3"></path><path d="M1157 455L1131 429L1131 403L1157 377" stroke-width="4.33" stroke="#3a7cc3"></path><path d="M1150.5 455 a6.5 6.5 0 1 0 13 0 a6.5 6.5 0 1 0 -13 0zM1150.5 377 a6.5 6.5 0 1 0 13 0 a6.5 6.5 0 1 0 -13 0z" fill="#3a7cc3"></path><path d="M1339 117L1417 39" stroke-width="4.33" stroke="#3a7cc3"></path><path d="M1332.5 117 a6.5 6.5 0 1 0 13 0 a6.5 6.5 0 1 0 -13 0zM1410.5 39 a6.5 6.5 0 1 0 13 0 a6.5 6.5 0 1 0 -13 0z" fill="#3a7cc3"></path><path d="M403 351L455 299L481 299" stroke-width="4.33" stroke="#3a7cc3"></path><path d="M396.5 351 a6.5 6.5 0 1 0 13 0 a6.5 6.5 0 1 0 -13 0zM474.5 299 a6.5 6.5 0 1 0 13 0 a6.5 6.5 0 1 0 -13 0z" fill="#3a7cc3"></path><path d="M715 195L715 91" stroke-width="4.33" stroke="#3a7cc3"></path><path d="M708.5 195 a6.5 6.5 0 1 0 13 0 a6.5 6.5 0 1 0 -13 0zM708.5 91 a6.5 6.5 0 1 0 13 0 a6.5 6.5 0 1 0 -13 0z" fill="#3a7cc3"></path><path d="M1417 507L1417 429" stroke-width="4.33" stroke="#3a7cc3"></path><path d="M1410.5 507 a6.5 6.5 0 1 0 13 0 a6.5 6.5 0 1 0 -13 0zM1410.5 429 a6.5 6.5 0 1 0 13 0 a6.5 6.5 0 1 0 -13 0z" fill="#3a7cc3"></path><path d="M1443 169L1417 143L1417 117L1443 91" stroke-width="4.33" stroke="#3a7cc3"></path><path d="M1436.5 169 a6.5 6.5 0 1 0 13 0 a6.5 6.5 0 1 0 -13 0zM1436.5 91 a6.5 6.5 0 1 0 13 0 a6.5 6.5 0 1 0 -13 0z" fill="#3a7cc3"></path><path d="M1261 247L1183 169" stroke-width="4.33" stroke="#3a7cc3"></path><path d="M1254.5 247 a6.5 6.5 0 1 0 13 0 a6.5 6.5 0 1 0 -13 0zM1176.5 169 a6.5 6.5 0 1 0 13 0 a6.5 6.5 0 1 0 -13 0z" fill="#3a7cc3"></path><path d="M481 377L481 403L455 429" stroke-width="4.33" stroke="#3a7cc3"></path><path d="M474.5 377 a6.5 6.5 0 1 0 13 0 a6.5 6.5 0 1 0 -13 0zM448.5 429 a6.5 6.5 0 1 0 13 0 a6.5 6.5 0 1 0 -13 0z" fill="#3a7cc3"></path><path d="M871 143L767 39L741 39" stroke-width="4.33" stroke="#3a7cc3"></path><path d="M864.5 143 a6.5 6.5 0 1 0 13 0 a6.5 6.5 0 1 0 -13 0zM734.5 39 a6.5 6.5 0 1 0 13 0 a6.5 6.5 0 1 0 -13 0z" fill="#3a7cc3"></path><path d="M13 65L65 117" stroke-width="4.33" stroke="#3a7cc3"></path><path d="M6.5 65 a6.5 6.5 0 1 0 13 0 a6.5 6.5 0 1 0 -13 0zM58.5 117 a6.5 6.5 0 1 0 13 0 a6.5 6.5 0 1 0 -13 0z" fill="#3a7cc3"></path><path d="M715 13L611 13" stroke-width="4.33" stroke="#3a7cc3"></path><path d="M708.5 13 a6.5 6.5 0 1 0 13 0 a6.5 6.5 0 1 0 -13 0zM604.5 13 a6.5 6.5 0 1 0 13 0 a6.5 6.5 0 1 0 -13 0z" fill="#3a7cc3"></path><path d="M247 377L247 325" stroke-width="4.33" stroke="#3a7cc3"></path><path d="M240.5 377 a6.5 6.5 0 1 0 13 0 a6.5 6.5 0 1 0 -13 0zM240.5 325 a6.5 6.5 0 1 0 13 0 a6.5 6.5 0 1 0 -13 0z" fill="#3a7cc3"></path><path d="M13 351L13 403L65 455" stroke-width="4.33" stroke="#3a7cc3"></path><path d="M6.5 351 a6.5 6.5 0 1 0 13 0 a6.5 6.5 0 1 0 -13 0zM58.5 455 a6.5 6.5 0 1 0 13 0 a6.5 6.5 0 1 0 -13 0z" fill="#3a7cc3"></path><path d="M611 143L611 195" stroke-width="4.33" stroke="#3a7cc3"></path><path d="M604.5 143 a6.5 6.5 0 1 0 13 0 a6.5 6.5 0 1 0 -13 0zM604.5 195 a6.5 6.5 0 1 0 13 0 a6.5 6.5 0 1 0 -13 0z" fill="#3a7cc3"></path><path d="M507 117L637 117L689 169L689 195" stroke-width="4.33" stroke="#3a7cc3"></path><path d="M500.5 117 a6.5 6.5 0 1 0 13 0 a6.5 6.5 0 1 0 -13 0zM682.5 195 a6.5 6.5 0 1 0 13 0 a6.5 6.5 0 1 0 -13 0z" fill="#3a7cc3"></path><path d="M845 273L845 325" stroke-width="4.33" stroke="#3a7cc3"></path><path d="M838.5 273 a6.5 6.5 0 1 0 13 0 a6.5 6.5 0 1 0 -13 0zM838.5 325 a6.5 6.5 0 1 0 13 0 a6.5 6.5 0 1 0 -13 0z" fill="#3a7cc3"></path><path d="M117 559L117 533L91 507L13 507" stroke-width="4.33" stroke="#3a7cc3"></path><path d="M110.5 559 a6.5 6.5 0 1 0 13 0 a6.5 6.5 0 1 0 -13 0zM6.5 507 a6.5 6.5 0 1 0 13 0 a6.5 6.5 0 1 0 -13 0z" fill="#3a7cc3"></path><path d="M559 195L585 169L585 143" stroke-width="4.33" stroke="#3a7cc3"></path><path d="M552.5 195 a6.5 6.5 0 1 0 13 0 a6.5 6.5 0 1 0 -13 0zM578.5 143 a6.5 6.5 0 1 0 13 0 a6.5 6.5 0 1 0 -13 0z" fill="#3a7cc3"></path><path d="M767 377L741 403L715 403" stroke-width="4.33" stroke="#3a7cc3"></path><path d="M760.5 377 a6.5 6.5 0 1 0 13 0 a6.5 6.5 0 1 0 -13 0zM708.5 403 a6.5 6.5 0 1 0 13 0 a6.5 6.5 0 1 0 -13 0z" fill="#3a7cc3"></path><path d="M1027 13L1053 39L1079 39" stroke-width="4.33" stroke="#3a7cc3"></path><path d="M1020.5 13 a6.5 6.5 0 1 0 13 0 a6.5 6.5 0 1 0 -13 0zM1072.5 39 a6.5 6.5 0 1 0 13 0 a6.5 6.5 0 1 0 -13 0z" fill="#3a7cc3"></path><path d="M1391 325L1391 273" stroke-width="4.33" stroke="#3a7cc3"></path><path d="M1384.5 325 a6.5 6.5 0 1 0 13 0 a6.5 6.5 0 1 0 -13 0zM1384.5 273 a6.5 6.5 0 1 0 13 0 a6.5 6.5 0 1 0 -13 0z" fill="#3a7cc3"></path><path d="M767 273L767 299L663 403L637 403L611 377" stroke-width="4.33" stroke="#3a7cc3"></path><path d="M760.5 273 a6.5 6.5 0 1 0 13 0 a6.5 6.5 0 1 0 -13 0zM604.5 377 a6.5 6.5 0 1 0 13 0 a6.5 6.5 0 1 0 -13 0z" fill="#3a7cc3"></path><path d="M1209 325L1235 351L1235 403L1261 429" stroke-width="4.33" stroke="#3a7cc3"></path><path d="M1202.5 325 a6.5 6.5 0 1 0 13 0 a6.5 6.5 0 1 0 -13 0zM1254.5 429 a6.5 6.5 0 1 0 13 0 a6.5 6.5 0 1 0 -13 0z" fill="#3a7cc3"></path><path d="M897 247L897 273L923 299" stroke-width="4.33" stroke="#3a7cc3"></path><path d="M890.5 247 a6.5 6.5 0 1 0 13 0 a6.5 6.5 0 1 0 -13 0zM916.5 299 a6.5 6.5 0 1 0 13 0 a6.5 6.5 0 1 0 -13 0z" fill="#3a7cc3"></path><path d="M65 377L65 429" stroke-width="4.33" stroke="#3a7cc3"></path><path d="M58.5 377 a6.5 6.5 0 1 0 13 0 a6.5 6.5 0 1 0 -13 0zM58.5 429 a6.5 6.5 0 1 0 13 0 a6.5 6.5 0 1 0 -13 0z" fill="#3a7cc3"></path><path d="M1209 481L1131 481" stroke-width="4.33" stroke="#3a7cc3"></path><path d="M1202.5 481 a6.5 6.5 0 1 0 13 0 a6.5 6.5 0 1 0 -13 0zM1124.5 481 a6.5 6.5 0 1 0 13 0 a6.5 6.5 0 1 0 -13 0z" fill="#3a7cc3"></path><path d="M1339 195L1339 299L1365 325" stroke-width="4.33" stroke="#3a7cc3"></path><path d="M1332.5 195 a6.5 6.5 0 1 0 13 0 a6.5 6.5 0 1 0 -13 0zM1358.5 325 a6.5 6.5 0 1 0 13 0 a6.5 6.5 0 1 0 -13 0z" fill="#3a7cc3"></path><path d="M1261 221L1209 169" stroke-width="4.33" stroke="#3a7cc3"></path><path d="M1254.5 221 a6.5 6.5 0 1 0 13 0 a6.5 6.5 0 1 0 -13 0zM1202.5 169 a6.5 6.5 0 1 0 13 0 a6.5 6.5 0 1 0 -13 0z" fill="#3a7cc3"></path><path d="M663 299L637 325L637 351L663 377" stroke-width="4.33" stroke="#3a7cc3"></path><path d="M656.5 299 a6.5 6.5 0 1 0 13 0 a6.5 6.5 0 1 0 -13 0zM656.5 377 a6.5 6.5 0 1 0 13 0 a6.5 6.5 0 1 0 -13 0z" fill="#3a7cc3"></path><path d="M1287 65L1209 65" stroke-width="4.33" stroke="#3a7cc3"></path><path d="M1280.5 65 a6.5 6.5 0 1 0 13 0 a6.5 6.5 0 1 0 -13 0zM1202.5 65 a6.5 6.5 0 1 0 13 0 a6.5 6.5 0 1 0 -13 0z" fill="#3a7cc3"></path><path d="M819 143L819 195L793 221" stroke-width="4.33" stroke="#3a7cc3"></path><path d="M812.5 143 a6.5 6.5 0 1 0 13 0 a6.5 6.5 0 1 0 -13 0zM786.5 221 a6.5 6.5 0 1 0 13 0 a6.5 6.5 0 1 0 -13 0z" fill="#3a7cc3"></path><path d="M1417 195L1443 221L1443 247" stroke-width="4.33" stroke="#3a7cc3"></path><path d="M1410.5 195 a6.5 6.5 0 1 0 13 0 a6.5 6.5 0 1 0 -13 0zM1436.5 247 a6.5 6.5 0 1 0 13 0 a6.5 6.5 0 1 0 -13 0z" fill="#3a7cc3"></path><path d="M1131 91L1131 39L1157 13L1209 13" stroke-width="4.33" stroke="#3a7cc3"></path><path d="M1124.5 91 a6.5 6.5 0 1 0 13 0 a6.5 6.5 0 1 0 -13 0zM1202.5 13 a6.5 6.5 0 1 0 13 0 a6.5 6.5 0 1 0 -13 0z" fill="#3a7cc3"></path><path d="M117 403L117 299" stroke-width="4.33" stroke="#3a7cc3"></path><path d="M110.5 403 a6.5 6.5 0 1 0 13 0 a6.5 6.5 0 1 0 -13 0zM110.5 299 a6.5 6.5 0 1 0 13 0 a6.5 6.5 0 1 0 -13 0z" fill="#3a7cc3"></path><path d="M949 559L845 559" stroke-width="4.33" stroke="#3a7cc3"></path><path d="M942.5 559 a6.5 6.5 0 1 0 13 0 a6.5 6.5 0 1 0 -13 0zM838.5 559 a6.5 6.5 0 1 0 13 0 a6.5 6.5 0 1 0 -13 0z" fill="#3a7cc3"></path><path d="M1079 65L1079 91L1053 117L1053 143" stroke-width="4.33" stroke="#3a7cc3"></path><path d="M1072.5 65 a6.5 6.5 0 1 0 13 0 a6.5 6.5 0 1 0 -13 0zM1046.5 143 a6.5 6.5 0 1 0 13 0 a6.5 6.5 0 1 0 -13 0z" fill="#3a7cc3"></path><path d="M455 403L429 403L403 377" stroke-width="4.33" stroke="#3a7cc3"></path><path d="M448.5 403 a6.5 6.5 0 1 0 13 0 a6.5 6.5 0 1 0 -13 0zM396.5 377 a6.5 6.5 0 1 0 13 0 a6.5 6.5 0 1 0 -13 0z" fill="#3a7cc3"></path><path d="M65 351L65 299" stroke-width="4.33" stroke="#3a7cc3"></path><path d="M58.5 351 a6.5 6.5 0 1 0 13 0 a6.5 6.5 0 1 0 -13 0zM58.5 299 a6.5 6.5 0 1 0 13 0 a6.5 6.5 0 1 0 -13 0z" fill="#3a7cc3"></path><path d="M169 403L143 377L143 299" stroke-width="4.33" stroke="#3a7cc3"></path><path d="M162.5 403 a6.5 6.5 0 1 0 13 0 a6.5 6.5 0 1 0 -13 0zM136.5 299 a6.5 6.5 0 1 0 13 0 a6.5 6.5 0 1 0 -13 0z" fill="#3a7cc3"></path><path d="M741 91L793 91L819 117" stroke-width="4.33" stroke="#3a7cc3"></path><path d="M734.5 91 a6.5 6.5 0 1 0 13 0 a6.5 6.5 0 1 0 -13 0zM812.5 117 a6.5 6.5 0 1 0 13 0 a6.5 6.5 0 1 0 -13 0z" fill="#3a7cc3"></path><path d="M559 169L533 195L481 195" stroke-width="4.33" stroke="#3a7cc3"></path><path d="M552.5 169 a6.5 6.5 0 1 0 13 0 a6.5 6.5 0 1 0 -13 0zM474.5 195 a6.5 6.5 0 1 0 13 0 a6.5 6.5 0 1 0 -13 0z" fill="#3a7cc3"></path><path d="M949 403L923 377L845 377" stroke-width="4.33" stroke="#3a7cc3"></path><path d="M942.5 403 a6.5 6.5 0 1 0 13 0 a6.5 6.5 0 1 0 -13 0zM838.5 377 a6.5 6.5 0 1 0 13 0 a6.5 6.5 0 1 0 -13 0z" fill="#3a7cc3"></path><path d="M663 351L689 351L741 299" stroke-width="4.33" stroke="#3a7cc3"></path><path d="M656.5 351 a6.5 6.5 0 1 0 13 0 a6.5 6.5 0 1 0 -13 0zM734.5 299 a6.5 6.5 0 1 0 13 0 a6.5 6.5 0 1 0 -13 0z" fill="#3a7cc3"></path><path d="M1027 39L1027 65L1053 91" stroke-width="4.33" stroke="#3a7cc3"></path><path d="M1020.5 39 a6.5 6.5 0 1 0 13 0 a6.5 6.5 0 1 0 -13 0zM1046.5 91 a6.5 6.5 0 1 0 13 0 a6.5 6.5 0 1 0 -13 0z" fill="#3a7cc3"></path><path d="M403 273L325 273" stroke-width="4.33" stroke="#3a7cc3"></path><path d="M396.5 273 a6.5 6.5 0 1 0 13 0 a6.5 6.5 0 1 0 -13 0zM318.5 273 a6.5 6.5 0 1 0 13 0 a6.5 6.5 0 1 0 -13 0z" fill="#3a7cc3"></path><path d="M689 559L637 559" stroke-width="4.33" stroke="#3a7cc3"></path><path d="M682.5 559 a6.5 6.5 0 1 0 13 0 a6.5 6.5 0 1 0 -13 0zM630.5 559 a6.5 6.5 0 1 0 13 0 a6.5 6.5 0 1 0 -13 0z" fill="#3a7cc3"></path><path d="M689 91L689 143" stroke-width="4.33" stroke="#3a7cc3"></path><path d="M682.5 91 a6.5 6.5 0 1 0 13 0 a6.5 6.5 0 1 0 -13 0zM682.5 143 a6.5 6.5 0 1 0 13 0 a6.5 6.5 0 1 0 -13 0z" fill="#3a7cc3"></path><path d="M221 377L247 403L247 429" stroke-width="4.33" stroke="#3a7cc3"></path><path d="M214.5 377 a6.5 6.5 0 1 0 13 0 a6.5 6.5 0 1 0 -13 0zM240.5 429 a6.5 6.5 0 1 0 13 0 a6.5 6.5 0 1 0 -13 0z" fill="#3a7cc3"></path><path d="M1157 325L1209 377" stroke-width="4.33" stroke="#3a7cc3"></path><path d="M1150.5 325 a6.5 6.5 0 1 0 13 0 a6.5 6.5 0 1 0 -13 0zM1202.5 377 a6.5 6.5 0 1 0 13 0 a6.5 6.5 0 1 0 -13 0z" fill="#3a7cc3"></path><path d="M195 13L273 91L299 91" stroke-width="4.33" stroke="#3a7cc3"></path><path d="M188.5 13 a6.5 6.5 0 1 0 13 0 a6.5 6.5 0 1 0 -13 0zM292.5 91 a6.5 6.5 0 1 0 13 0 a6.5 6.5 0 1 0 -13 0z" fill="#3a7cc3"></path><path d="M871 403L923 403" stroke-width="4.33" stroke="#3a7cc3"></path><path d="M864.5 403 a6.5 6.5 0 1 0 13 0 a6.5 6.5 0 1 0 -13 0zM916.5 403 a6.5 6.5 0 1 0 13 0 a6.5 6.5 0 1 0 -13 0z" fill="#3a7cc3"></path></g></g><defs><mask id="SvgjsMask1003"><rect width="1440" height="560" fill="#ffffff"></rect></mask><linearGradient x1="15.28%" y1="-39.29%" x2="84.72%" y2="139.29%" gradientUnits="userSpaceOnUse" id="SvgjsLinearGradient1004"><stop stop-color="#0e2a47" offset="0"></stop><stop stop-color="rgba(0, 0, 0, 1)" offset="1"></stop></linearGradient><mask id="SvgjsMask1005"><rect width="1440" height="560" fill="white"></rect><path d="M295.75 377 a3.25 3.25 0 1 0 6.5 0 a3.25 3.25 0 1 0 -6.5 0zM9.75 273 a3.25 3.25 0 1 0 6.5 0 a3.25 3.25 0 1 0 -6.5 0z" fill="black"></path><path d="M61.75 39 a3.25 3.25 0 1 0 6.5 0 a3.25 3.25 0 1 0 -6.5 0zM529.75 533 a3.25 3.25 0 1 0 6.5 0 a3.25 3.25 0 1 0 -6.5 0z" fill="black"></path><path d="M1075.75 195 a3.25 3.25 0 1 0 6.5 0 a3.25 3.25 0 1 0 -6.5 0zM1439.75 403 a3.25 3.25 0 1 0 6.5 0 a3.25 3.25 0 1 0 -6.5 0z" fill="black"></path><path d="M399.75 481 a3.25 3.25 0 1 0 6.5 0 a3.25 3.25 0 1 0 -6.5 0zM893.75 507 a3.25 3.25 0 1 0 6.5 0 a3.25 3.25 0 1 0 -6.5 0z" fill="black"></path><path d="M1335.75 559 a3.25 3.25 0 1 0 6.5 0 a3.25 3.25 0 1 0 -6.5 0zM1049.75 299 a3.25 3.25 0 1 0 6.5 0 a3.25 3.25 0 1 0 -6.5 0z" fill="black"></path><path d="M1283.75 403 a3.25 3.25 0 1 0 6.5 0 a3.25 3.25 0 1 0 -6.5 0zM1283.75 559 a3.25 3.25 0 1 0 6.5 0 a3.25 3.25 0 1 0 -6.5 0z" fill="black"></path><path d="M737.75 65 a3.25 3.25 0 1 0 6.5 0 a3.25 3.25 0 1 0 -6.5 0zM243.75 13 a3.25 3.25 0 1 0 6.5 0 a3.25 3.25 0 1 0 -6.5 0z" fill="black"></path><path d="M841.75 39 a3.25 3.25 0 1 0 6.5 0 a3.25 3.25 0 1 0 -6.5 0zM1023.75 533 a3.25 3.25 0 1 0 6.5 0 a3.25 3.25 0 1 0 -6.5 0z" fill="black"></path><path d="M113.75 429 a3.25 3.25 0 1 0 6.5 0 a3.25 3.25 0 1 0 -6.5 0zM503.75 559 a3.25 3.25 0 1 0 6.5 0 a3.25 3.25 0 1 0 -6.5 0z" fill="black"></path><path d="M1361.75 507 a3.25 3.25 0 1 0 6.5 0 a3.25 3.25 0 1 0 -6.5 0zM1309.75 403 a3.25 3.25 0 1 0 6.5 0 a3.25 3.25 0 1 0 -6.5 0z" fill="black"></path><path d="M451.75 247 a3.25 3.25 0 1 0 6.5 0 a3.25 3.25 0 1 0 -6.5 0zM269.75 247 a3.25 3.25 0 1 0 6.5 0 a3.25 3.25 0 1 0 -6.5 0z" fill="black"></path><path d="M789.75 351 a3.25 3.25 0 1 0 6.5 0 a3.25 3.25 0 1 0 -6.5 0zM997.75 351 a3.25 3.25 0 1 0 6.5 0 a3.25 3.25 0 1 0 -6.5 0z" fill="black"></path><path d="M1075.75 507 a3.25 3.25 0 1 0 6.5 0 a3.25 3.25 0 1 0 -6.5 0zM1257.75 559 a3.25 3.25 0 1 0 6.5 0 a3.25 3.25 0 1 0 -6.5 0z" fill="black"></path><path d="M269.75 117 a3.25 3.25 0 1 0 6.5 0 a3.25 3.25 0 1 0 -6.5 0zM763.75 221 a3.25 3.25 0 1 0 6.5 0 a3.25 3.25 0 1 0 -6.5 0z" fill="black"></path><path d="M425.75 299 a3.25 3.25 0 1 0 6.5 0 a3.25 3.25 0 1 0 -6.5 0zM295.75 273 a3.25 3.25 0 1 0 6.5 0 a3.25 3.25 0 1 0 -6.5 0z" fill="black"></path><path d="M451.75 195 a3.25 3.25 0 1 0 6.5 0 a3.25 3.25 0 1 0 -6.5 0zM373.75 143 a3.25 3.25 0 1 0 6.5 0 a3.25 3.25 0 1 0 -6.5 0z" fill="black"></path><path d="M1127.75 221 a3.25 3.25 0 1 0 6.5 0 a3.25 3.25 0 1 0 -6.5 0zM1283.75 377 a3.25 3.25 0 1 0 6.5 0 a3.25 3.25 0 1 0 -6.5 0z" fill="black"></path><path d="M1413.75 559 a3.25 3.25 0 1 0 6.5 0 a3.25 3.25 0 1 0 -6.5 0zM1127.75 169 a3.25 3.25 0 1 0 6.5 0 a3.25 3.25 0 1 0 -6.5 0z" fill="black"></path><path d="M607.75 455 a3.25 3.25 0 1 0 6.5 0 a3.25 3.25 0 1 0 -6.5 0zM1101.75 559 a3.25 3.25 0 1 0 6.5 0 a3.25 3.25 0 1 0 -6.5 0z" fill="black"></path><path d="M503.75 247 a3.25 3.25 0 1 0 6.5 0 a3.25 3.25 0 1 0 -6.5 0zM919.75 195 a3.25 3.25 0 1 0 6.5 0 a3.25 3.25 0 1 0 -6.5 0z" fill="black"></path><path d="M1309.75 299 a3.25 3.25 0 1 0 6.5 0 a3.25 3.25 0 1 0 -6.5 0zM1283.75 299 a3.25 3.25 0 1 0 6.5 0 a3.25 3.25 0 1 0 -6.5 0z" fill="black"></path><path d="M139.75 247 a3.25 3.25 0 1 0 6.5 0 a3.25 3.25 0 1 0 -6.5 0zM217.75 247 a3.25 3.25 0 1 0 6.5 0 a3.25 3.25 0 1 0 -6.5 0z" fill="black"></path><path d="M1127.75 377 a3.25 3.25 0 1 0 6.5 0 a3.25 3.25 0 1 0 -6.5 0zM1101.75 221 a3.25 3.25 0 1 0 6.5 0 a3.25 3.25 0 1 0 -6.5 0z" fill="black"></path><path d="M1387.75 117 a3.25 3.25 0 1 0 6.5 0 a3.25 3.25 0 1 0 -6.5 0zM1439.75 13 a3.25 3.25 0 1 0 6.5 0 a3.25 3.25 0 1 0 -6.5 0z" fill="black"></path><path d="M1153.75 351 a3.25 3.25 0 1 0 6.5 0 a3.25 3.25 0 1 0 -6.5 0zM1257.75 507 a3.25 3.25 0 1 0 6.5 0 a3.25 3.25 0 1 0 -6.5 0z" fill="black"></path><path d="M269.75 143 a3.25 3.25 0 1 0 6.5 0 a3.25 3.25 0 1 0 -6.5 0zM399.75 221 a3.25 3.25 0 1 0 6.5 0 a3.25 3.25 0 1 0 -6.5 0z" fill="black"></path><path d="M659.75 117 a3.25 3.25 0 1 0 6.5 0 a3.25 3.25 0 1 0 -6.5 0zM399.75 143 a3.25 3.25 0 1 0 6.5 0 a3.25 3.25 0 1 0 -6.5 0z" fill="black"></path><path d="M1153.75 429 a3.25 3.25 0 1 0 6.5 0 a3.25 3.25 0 1 0 -6.5 0zM1049.75 325 a3.25 3.25 0 1 0 6.5 0 a3.25 3.25 0 1 0 -6.5 0z" fill="black"></path><path d="M243.75 117 a3.25 3.25 0 1 0 6.5 0 a3.25 3.25 0 1 0 -6.5 0zM9.75 13 a3.25 3.25 0 1 0 6.5 0 a3.25 3.25 0 1 0 -6.5 0z" fill="black"></path><path d="M477.75 429 a3.25 3.25 0 1 0 6.5 0 a3.25 3.25 0 1 0 -6.5 0zM581.75 429 a3.25 3.25 0 1 0 6.5 0 a3.25 3.25 0 1 0 -6.5 0z" fill="black"></path><path d="M893.75 429 a3.25 3.25 0 1 0 6.5 0 a3.25 3.25 0 1 0 -6.5 0zM971.75 507 a3.25 3.25 0 1 0 6.5 0 a3.25 3.25 0 1 0 -6.5 0z" fill="black"></path><path d="M763.75 403 a3.25 3.25 0 1 0 6.5 0 a3.25 3.25 0 1 0 -6.5 0zM867.75 429 a3.25 3.25 0 1 0 6.5 0 a3.25 3.25 0 1 0 -6.5 0z" fill="black"></path><path d="M1335.75 91 a3.25 3.25 0 1 0 6.5 0 a3.25 3.25 0 1 0 -6.5 0zM1413.75 13 a3.25 3.25 0 1 0 6.5 0 a3.25 3.25 0 1 0 -6.5 0z" fill="black"></path><path d="M87.75 221 a3.25 3.25 0 1 0 6.5 0 a3.25 3.25 0 1 0 -6.5 0zM217.75 221 a3.25 3.25 0 1 0 6.5 0 a3.25 3.25 0 1 0 -6.5 0z" fill="black"></path><path d="M893.75 299 a3.25 3.25 0 1 0 6.5 0 a3.25 3.25 0 1 0 -6.5 0zM659.75 39 a3.25 3.25 0 1 0 6.5 0 a3.25 3.25 0 1 0 -6.5 0z" fill="black"></path><path d="M1049.75 351 a3.25 3.25 0 1 0 6.5 0 a3.25 3.25 0 1 0 -6.5 0zM1075.75 429 a3.25 3.25 0 1 0 6.5 0 a3.25 3.25 0 1 0 -6.5 0z" fill="black"></path><path d="M867.75 247 a3.25 3.25 0 1 0 6.5 0 a3.25 3.25 0 1 0 -6.5 0zM867.75 325 a3.25 3.25 0 1 0 6.5 0 a3.25 3.25 0 1 0 -6.5 0z" fill="black"></path><path d="M529.75 455 a3.25 3.25 0 1 0 6.5 0 a3.25 3.25 0 1 0 -6.5 0zM581.75 533 a3.25 3.25 0 1 0 6.5 0 a3.25 3.25 0 1 0 -6.5 0z" fill="black"></path><path d="M893.75 481 a3.25 3.25 0 1 0 6.5 0 a3.25 3.25 0 1 0 -6.5 0zM555.75 455 a3.25 3.25 0 1 0 6.5 0 a3.25 3.25 0 1 0 -6.5 0z" fill="black"></path><path d="M1179.75 507 a3.25 3.25 0 1 0 6.5 0 a3.25 3.25 0 1 0 -6.5 0zM1127.75 507 a3.25 3.25 0 1 0 6.5 0 a3.25 3.25 0 1 0 -6.5 0z" fill="black"></path><path d="M191.75 325 a3.25 3.25 0 1 0 6.5 0 a3.25 3.25 0 1 0 -6.5 0zM165.75 533 a3.25 3.25 0 1 0 6.5 0 a3.25 3.25 0 1 0 -6.5 0z" fill="black"></path><path d="M1309.75 117 a3.25 3.25 0 1 0 6.5 0 a3.25 3.25 0 1 0 -6.5 0zM1309.75 13 a3.25 3.25 0 1 0 6.5 0 a3.25 3.25 0 1 0 -6.5 0z" fill="black"></path><path d="M997.75 39 a3.25 3.25 0 1 0 6.5 0 a3.25 3.25 0 1 0 -6.5 0zM815.75 13 a3.25 3.25 0 1 0 6.5 0 a3.25 3.25 0 1 0 -6.5 0z" fill="black"></path><path d="M685.75 429 a3.25 3.25 0 1 0 6.5 0 a3.25 3.25 0 1 0 -6.5 0zM841.75 429 a3.25 3.25 0 1 0 6.5 0 a3.25 3.25 0 1 0 -6.5 0z" fill="black"></path><path d="M555.75 325 a3.25 3.25 0 1 0 6.5 0 a3.25 3.25 0 1 0 -6.5 0zM893.75 143 a3.25 3.25 0 1 0 6.5 0 a3.25 3.25 0 1 0 -6.5 0z" fill="black"></path><path d="M1335.75 481 a3.25 3.25 0 1 0 6.5 0 a3.25 3.25 0 1 0 -6.5 0zM1309.75 429 a3.25 3.25 0 1 0 6.5 0 a3.25 3.25 0 1 0 -6.5 0z" fill="black"></path><path d="M659.75 273 a3.25 3.25 0 1 0 6.5 0 a3.25 3.25 0 1 0 -6.5 0zM581.75 377 a3.25 3.25 0 1 0 6.5 0 a3.25 3.25 0 1 0 -6.5 0z" fill="black"></path><path d="M1413.75 533 a3.25 3.25 0 1 0 6.5 0 a3.25 3.25 0 1 0 -6.5 0zM1361.75 559 a3.25 3.25 0 1 0 6.5 0 a3.25 3.25 0 1 0 -6.5 0z" fill="black"></path><path d="M1127.75 117 a3.25 3.25 0 1 0 6.5 0 a3.25 3.25 0 1 0 -6.5 0zM1283.75 39 a3.25 3.25 0 1 0 6.5 0 a3.25 3.25 0 1 0 -6.5 0z" fill="black"></path><path d="M1075.75 117 a3.25 3.25 0 1 0 6.5 0 a3.25 3.25 0 1 0 -6.5 0zM867.75 39 a3.25 3.25 0 1 0 6.5 0 a3.25 3.25 0 1 0 -6.5 0z" fill="black"></path><path d="M1387.75 429 a3.25 3.25 0 1 0 6.5 0 a3.25 3.25 0 1 0 -6.5 0zM1335.75 377 a3.25 3.25 0 1 0 6.5 0 a3.25 3.25 0 1 0 -6.5 0z" fill="black"></path><path d="M1101.75 91 a3.25 3.25 0 1 0 6.5 0 a3.25 3.25 0 1 0 -6.5 0zM1101.75 13 a3.25 3.25 0 1 0 6.5 0 a3.25 3.25 0 1 0 -6.5 0z" fill="black"></path><path d="M971.75 65 a3.25 3.25 0 1 0 6.5 0 a3.25 3.25 0 1 0 -6.5 0zM1049.75 169 a3.25 3.25 0 1 0 6.5 0 a3.25 3.25 0 1 0 -6.5 0z" fill="black"></path><path d="M477.75 169 a3.25 3.25 0 1 0 6.5 0 a3.25 3.25 0 1 0 -6.5 0zM477.75 117 a3.25 3.25 0 1 0 6.5 0 a3.25 3.25 0 1 0 -6.5 0z" fill="black"></path><path d="M61.75 195 a3.25 3.25 0 1 0 6.5 0 a3.25 3.25 0 1 0 -6.5 0zM9.75 39 a3.25 3.25 0 1 0 6.5 0 a3.25 3.25 0 1 0 -6.5 0z" fill="black"></path><path d="M165.75 325 a3.25 3.25 0 1 0 6.5 0 a3.25 3.25 0 1 0 -6.5 0zM191.75 481 a3.25 3.25 0 1 0 6.5 0 a3.25 3.25 0 1 0 -6.5 0z" fill="black"></path><path d="M789.75 559 a3.25 3.25 0 1 0 6.5 0 a3.25 3.25 0 1 0 -6.5 0zM971.75 559 a3.25 3.25 0 1 0 6.5 0 a3.25 3.25 0 1 0 -6.5 0z" fill="black"></path><path d="M425.75 13 a3.25 3.25 0 1 0 6.5 0 a3.25 3.25 0 1 0 -6.5 0zM269.75 13 a3.25 3.25 0 1 0 6.5 0 a3.25 3.25 0 1 0 -6.5 0z" fill="black"></path><path d="M373.75 507 a3.25 3.25 0 1 0 6.5 0 a3.25 3.25 0 1 0 -6.5 0zM295.75 559 a3.25 3.25 0 1 0 6.5 0 a3.25 3.25 0 1 0 -6.5 0z" fill="black"></path><path d="M1361.75 247 a3.25 3.25 0 1 0 6.5 0 a3.25 3.25 0 1 0 -6.5 0zM1413.75 377 a3.25 3.25 0 1 0 6.5 0 a3.25 3.25 0 1 0 -6.5 0z" fill="black"></path><path d="M997.75 377 a3.25 3.25 0 1 0 6.5 0 a3.25 3.25 0 1 0 -6.5 0zM997.75 481 a3.25 3.25 0 1 0 6.5 0 a3.25 3.25 0 1 0 -6.5 0z" fill="black"></path><path d="M269.75 481 a3.25 3.25 0 1 0 6.5 0 a3.25 3.25 0 1 0 -6.5 0zM347.75 377 a3.25 3.25 0 1 0 6.5 0 a3.25 3.25 0 1 0 -6.5 0z" fill="black"></path><path d="M399.75 429 a3.25 3.25 0 1 0 6.5 0 a3.25 3.25 0 1 0 -6.5 0zM321.75 429 a3.25 3.25 0 1 0 6.5 0 a3.25 3.25 0 1 0 -6.5 0z" fill="black"></path><path d="M893.75 221 a3.25 3.25 0 1 0 6.5 0 a3.25 3.25 0 1 0 -6.5 0zM945.75 299 a3.25 3.25 0 1 0 6.5 0 a3.25 3.25 0 1 0 -6.5 0z" fill="black"></path><path d="M1309.75 507 a3.25 3.25 0 1 0 6.5 0 a3.25 3.25 0 1 0 -6.5 0zM1309.75 559 a3.25 3.25 0 1 0 6.5 0 a3.25 3.25 0 1 0 -6.5 0z" fill="black"></path><path d="M607.75 559 a3.25 3.25 0 1 0 6.5 0 a3.25 3.25 0 1 0 -6.5 0zM789.75 533 a3.25 3.25 0 1 0 6.5 0 a3.25 3.25 0 1 0 -6.5 0z" fill="black"></path><path d="M35.75 221 a3.25 3.25 0 1 0 6.5 0 a3.25 3.25 0 1 0 -6.5 0zM113.75 247 a3.25 3.25 0 1 0 6.5 0 a3.25 3.25 0 1 0 -6.5 0z" fill="black"></path><path d="M1049.75 533 a3.25 3.25 0 1 0 6.5 0 a3.25 3.25 0 1 0 -6.5 0zM1049.75 481 a3.25 3.25 0 1 0 6.5 0 a3.25 3.25 0 1 0 -6.5 0z" fill="black"></path><path d="M139.75 65 a3.25 3.25 0 1 0 6.5 0 a3.25 3.25 0 1 0 -6.5 0zM373.75 221 a3.25 3.25 0 1 0 6.5 0 a3.25 3.25 0 1 0 -6.5 0z" fill="black"></path><path d="M87.75 299 a3.25 3.25 0 1 0 6.5 0 a3.25 3.25 0 1 0 -6.5 0zM87.75 455 a3.25 3.25 0 1 0 6.5 0 a3.25 3.25 0 1 0 -6.5 0z" fill="black"></path><path d="M477.75 273 a3.25 3.25 0 1 0 6.5 0 a3.25 3.25 0 1 0 -6.5 0zM503.75 403 a3.25 3.25 0 1 0 6.5 0 a3.25 3.25 0 1 0 -6.5 0z" fill="black"></path><path d="M165.75 39 a3.25 3.25 0 1 0 6.5 0 a3.25 3.25 0 1 0 -6.5 0zM217.75 117 a3.25 3.25 0 1 0 6.5 0 a3.25 3.25 0 1 0 -6.5 0z" fill="black"></path><path d="M477.75 455 a3.25 3.25 0 1 0 6.5 0 a3.25 3.25 0 1 0 -6.5 0zM555.75 533 a3.25 3.25 0 1 0 6.5 0 a3.25 3.25 0 1 0 -6.5 0z" fill="black"></path><path d="M321.75 481 a3.25 3.25 0 1 0 6.5 0 a3.25 3.25 0 1 0 -6.5 0zM217.75 533 a3.25 3.25 0 1 0 6.5 0 a3.25 3.25 0 1 0 -6.5 0z" fill="black"></path><path d="M35.75 195 a3.25 3.25 0 1 0 6.5 0 a3.25 3.25 0 1 0 -6.5 0zM9.75 247 a3.25 3.25 0 1 0 6.5 0 a3.25 3.25 0 1 0 -6.5 0z" fill="black"></path><path d="M1127.75 273 a3.25 3.25 0 1 0 6.5 0 a3.25 3.25 0 1 0 -6.5 0zM1127.75 325 a3.25 3.25 0 1 0 6.5 0 a3.25 3.25 0 1 0 -6.5 0z" fill="black"></path><path d="M1153.75 455 a3.25 3.25 0 1 0 6.5 0 a3.25 3.25 0 1 0 -6.5 0zM1153.75 377 a3.25 3.25 0 1 0 6.5 0 a3.25 3.25 0 1 0 -6.5 0z" fill="black"></path><path d="M1335.75 117 a3.25 3.25 0 1 0 6.5 0 a3.25 3.25 0 1 0 -6.5 0zM1413.75 39 a3.25 3.25 0 1 0 6.5 0 a3.25 3.25 0 1 0 -6.5 0z" fill="black"></path><path d="M399.75 351 a3.25 3.25 0 1 0 6.5 0 a3.25 3.25 0 1 0 -6.5 0zM477.75 299 a3.25 3.25 0 1 0 6.5 0 a3.25 3.25 0 1 0 -6.5 0z" fill="black"></path><path d="M711.75 195 a3.25 3.25 0 1 0 6.5 0 a3.25 3.25 0 1 0 -6.5 0zM711.75 91 a3.25 3.25 0 1 0 6.5 0 a3.25 3.25 0 1 0 -6.5 0z" fill="black"></path><path d="M1413.75 507 a3.25 3.25 0 1 0 6.5 0 a3.25 3.25 0 1 0 -6.5 0zM1413.75 429 a3.25 3.25 0 1 0 6.5 0 a3.25 3.25 0 1 0 -6.5 0z" fill="black"></path><path d="M1439.75 169 a3.25 3.25 0 1 0 6.5 0 a3.25 3.25 0 1 0 -6.5 0zM1439.75 91 a3.25 3.25 0 1 0 6.5 0 a3.25 3.25 0 1 0 -6.5 0z" fill="black"></path><path d="M1257.75 247 a3.25 3.25 0 1 0 6.5 0 a3.25 3.25 0 1 0 -6.5 0zM1179.75 169 a3.25 3.25 0 1 0 6.5 0 a3.25 3.25 0 1 0 -6.5 0z" fill="black"></path><path d="M477.75 377 a3.25 3.25 0 1 0 6.5 0 a3.25 3.25 0 1 0 -6.5 0zM451.75 429 a3.25 3.25 0 1 0 6.5 0 a3.25 3.25 0 1 0 -6.5 0z" fill="black"></path><path d="M867.75 143 a3.25 3.25 0 1 0 6.5 0 a3.25 3.25 0 1 0 -6.5 0zM737.75 39 a3.25 3.25 0 1 0 6.5 0 a3.25 3.25 0 1 0 -6.5 0z" fill="black"></path><path d="M9.75 65 a3.25 3.25 0 1 0 6.5 0 a3.25 3.25 0 1 0 -6.5 0zM61.75 117 a3.25 3.25 0 1 0 6.5 0 a3.25 3.25 0 1 0 -6.5 0z" fill="black"></path><path d="M711.75 13 a3.25 3.25 0 1 0 6.5 0 a3.25 3.25 0 1 0 -6.5 0zM607.75 13 a3.25 3.25 0 1 0 6.5 0 a3.25 3.25 0 1 0 -6.5 0z" fill="black"></path><path d="M243.75 377 a3.25 3.25 0 1 0 6.5 0 a3.25 3.25 0 1 0 -6.5 0zM243.75 325 a3.25 3.25 0 1 0 6.5 0 a3.25 3.25 0 1 0 -6.5 0z" fill="black"></path><path d="M9.75 351 a3.25 3.25 0 1 0 6.5 0 a3.25 3.25 0 1 0 -6.5 0zM61.75 455 a3.25 3.25 0 1 0 6.5 0 a3.25 3.25 0 1 0 -6.5 0z" fill="black"></path><path d="M607.75 143 a3.25 3.25 0 1 0 6.5 0 a3.25 3.25 0 1 0 -6.5 0zM607.75 195 a3.25 3.25 0 1 0 6.5 0 a3.25 3.25 0 1 0 -6.5 0z" fill="black"></path><path d="M503.75 117 a3.25 3.25 0 1 0 6.5 0 a3.25 3.25 0 1 0 -6.5 0zM685.75 195 a3.25 3.25 0 1 0 6.5 0 a3.25 3.25 0 1 0 -6.5 0z" fill="black"></path><path d="M841.75 273 a3.25 3.25 0 1 0 6.5 0 a3.25 3.25 0 1 0 -6.5 0zM841.75 325 a3.25 3.25 0 1 0 6.5 0 a3.25 3.25 0 1 0 -6.5 0z" fill="black"></path><path d="M113.75 559 a3.25 3.25 0 1 0 6.5 0 a3.25 3.25 0 1 0 -6.5 0zM9.75 507 a3.25 3.25 0 1 0 6.5 0 a3.25 3.25 0 1 0 -6.5 0z" fill="black"></path><path d="M555.75 195 a3.25 3.25 0 1 0 6.5 0 a3.25 3.25 0 1 0 -6.5 0zM581.75 143 a3.25 3.25 0 1 0 6.5 0 a3.25 3.25 0 1 0 -6.5 0z" fill="black"></path><path d="M763.75 377 a3.25 3.25 0 1 0 6.5 0 a3.25 3.25 0 1 0 -6.5 0zM711.75 403 a3.25 3.25 0 1 0 6.5 0 a3.25 3.25 0 1 0 -6.5 0z" fill="black"></path><path d="M1023.75 13 a3.25 3.25 0 1 0 6.5 0 a3.25 3.25 0 1 0 -6.5 0zM1075.75 39 a3.25 3.25 0 1 0 6.5 0 a3.25 3.25 0 1 0 -6.5 0z" fill="black"></path><path d="M1387.75 325 a3.25 3.25 0 1 0 6.5 0 a3.25 3.25 0 1 0 -6.5 0zM1387.75 273 a3.25 3.25 0 1 0 6.5 0 a3.25 3.25 0 1 0 -6.5 0z" fill="black"></path><path d="M763.75 273 a3.25 3.25 0 1 0 6.5 0 a3.25 3.25 0 1 0 -6.5 0zM607.75 377 a3.25 3.25 0 1 0 6.5 0 a3.25 3.25 0 1 0 -6.5 0z" fill="black"></path><path d="M1205.75 325 a3.25 3.25 0 1 0 6.5 0 a3.25 3.25 0 1 0 -6.5 0zM1257.75 429 a3.25 3.25 0 1 0 6.5 0 a3.25 3.25 0 1 0 -6.5 0z" fill="black"></path><path d="M893.75 247 a3.25 3.25 0 1 0 6.5 0 a3.25 3.25 0 1 0 -6.5 0zM919.75 299 a3.25 3.25 0 1 0 6.5 0 a3.25 3.25 0 1 0 -6.5 0z" fill="black"></path><path d="M61.75 377 a3.25 3.25 0 1 0 6.5 0 a3.25 3.25 0 1 0 -6.5 0zM61.75 429 a3.25 3.25 0 1 0 6.5 0 a3.25 3.25 0 1 0 -6.5 0z" fill="black"></path><path d="M1205.75 481 a3.25 3.25 0 1 0 6.5 0 a3.25 3.25 0 1 0 -6.5 0zM1127.75 481 a3.25 3.25 0 1 0 6.5 0 a3.25 3.25 0 1 0 -6.5 0z" fill="black"></path><path d="M1335.75 195 a3.25 3.25 0 1 0 6.5 0 a3.25 3.25 0 1 0 -6.5 0zM1361.75 325 a3.25 3.25 0 1 0 6.5 0 a3.25 3.25 0 1 0 -6.5 0z" fill="black"></path><path d="M1257.75 221 a3.25 3.25 0 1 0 6.5 0 a3.25 3.25 0 1 0 -6.5 0zM1205.75 169 a3.25 3.25 0 1 0 6.5 0 a3.25 3.25 0 1 0 -6.5 0z" fill="black"></path><path d="M659.75 299 a3.25 3.25 0 1 0 6.5 0 a3.25 3.25 0 1 0 -6.5 0zM659.75 377 a3.25 3.25 0 1 0 6.5 0 a3.25 3.25 0 1 0 -6.5 0z" fill="black"></path><path d="M1283.75 65 a3.25 3.25 0 1 0 6.5 0 a3.25 3.25 0 1 0 -6.5 0zM1205.75 65 a3.25 3.25 0 1 0 6.5 0 a3.25 3.25 0 1 0 -6.5 0z" fill="black"></path><path d="M815.75 143 a3.25 3.25 0 1 0 6.5 0 a3.25 3.25 0 1 0 -6.5 0zM789.75 221 a3.25 3.25 0 1 0 6.5 0 a3.25 3.25 0 1 0 -6.5 0z" fill="black"></path><path d="M1413.75 195 a3.25 3.25 0 1 0 6.5 0 a3.25 3.25 0 1 0 -6.5 0zM1439.75 247 a3.25 3.25 0 1 0 6.5 0 a3.25 3.25 0 1 0 -6.5 0z" fill="black"></path><path d="M1127.75 91 a3.25 3.25 0 1 0 6.5 0 a3.25 3.25 0 1 0 -6.5 0zM1205.75 13 a3.25 3.25 0 1 0 6.5 0 a3.25 3.25 0 1 0 -6.5 0z" fill="black"></path><path d="M113.75 403 a3.25 3.25 0 1 0 6.5 0 a3.25 3.25 0 1 0 -6.5 0zM113.75 299 a3.25 3.25 0 1 0 6.5 0 a3.25 3.25 0 1 0 -6.5 0z" fill="black"></path><path d="M945.75 559 a3.25 3.25 0 1 0 6.5 0 a3.25 3.25 0 1 0 -6.5 0zM841.75 559 a3.25 3.25 0 1 0 6.5 0 a3.25 3.25 0 1 0 -6.5 0z" fill="black"></path><path d="M1075.75 65 a3.25 3.25 0 1 0 6.5 0 a3.25 3.25 0 1 0 -6.5 0zM1049.75 143 a3.25 3.25 0 1 0 6.5 0 a3.25 3.25 0 1 0 -6.5 0z" fill="black"></path><path d="M451.75 403 a3.25 3.25 0 1 0 6.5 0 a3.25 3.25 0 1 0 -6.5 0zM399.75 377 a3.25 3.25 0 1 0 6.5 0 a3.25 3.25 0 1 0 -6.5 0z" fill="black"></path><path d="M61.75 351 a3.25 3.25 0 1 0 6.5 0 a3.25 3.25 0 1 0 -6.5 0zM61.75 299 a3.25 3.25 0 1 0 6.5 0 a3.25 3.25 0 1 0 -6.5 0z" fill="black"></path><path d="M165.75 403 a3.25 3.25 0 1 0 6.5 0 a3.25 3.25 0 1 0 -6.5 0zM139.75 299 a3.25 3.25 0 1 0 6.5 0 a3.25 3.25 0 1 0 -6.5 0z" fill="black"></path><path d="M737.75 91 a3.25 3.25 0 1 0 6.5 0 a3.25 3.25 0 1 0 -6.5 0zM815.75 117 a3.25 3.25 0 1 0 6.5 0 a3.25 3.25 0 1 0 -6.5 0z" fill="black"></path><path d="M555.75 169 a3.25 3.25 0 1 0 6.5 0 a3.25 3.25 0 1 0 -6.5 0zM477.75 195 a3.25 3.25 0 1 0 6.5 0 a3.25 3.25 0 1 0 -6.5 0z" fill="black"></path><path d="M945.75 403 a3.25 3.25 0 1 0 6.5 0 a3.25 3.25 0 1 0 -6.5 0zM841.75 377 a3.25 3.25 0 1 0 6.5 0 a3.25 3.25 0 1 0 -6.5 0z" fill="black"></path><path d="M659.75 351 a3.25 3.25 0 1 0 6.5 0 a3.25 3.25 0 1 0 -6.5 0zM737.75 299 a3.25 3.25 0 1 0 6.5 0 a3.25 3.25 0 1 0 -6.5 0z" fill="black"></path><path d="M1023.75 39 a3.25 3.25 0 1 0 6.5 0 a3.25 3.25 0 1 0 -6.5 0zM1049.75 91 a3.25 3.25 0 1 0 6.5 0 a3.25 3.25 0 1 0 -6.5 0z" fill="black"></path><path d="M399.75 273 a3.25 3.25 0 1 0 6.5 0 a3.25 3.25 0 1 0 -6.5 0zM321.75 273 a3.25 3.25 0 1 0 6.5 0 a3.25 3.25 0 1 0 -6.5 0z" fill="black"></path><path d="M685.75 559 a3.25 3.25 0 1 0 6.5 0 a3.25 3.25 0 1 0 -6.5 0zM633.75 559 a3.25 3.25 0 1 0 6.5 0 a3.25 3.25 0 1 0 -6.5 0z" fill="black"></path><path d="M685.75 91 a3.25 3.25 0 1 0 6.5 0 a3.25 3.25 0 1 0 -6.5 0zM685.75 143 a3.25 3.25 0 1 0 6.5 0 a3.25 3.25 0 1 0 -6.5 0z" fill="black"></path><path d="M217.75 377 a3.25 3.25 0 1 0 6.5 0 a3.25 3.25 0 1 0 -6.5 0zM243.75 429 a3.25 3.25 0 1 0 6.5 0 a3.25 3.25 0 1 0 -6.5 0z" fill="black"></path><path d="M1153.75 325 a3.25 3.25 0 1 0 6.5 0 a3.25 3.25 0 1 0 -6.5 0zM1205.75 377 a3.25 3.25 0 1 0 6.5 0 a3.25 3.25 0 1 0 -6.5 0z" fill="black"></path><path d="M191.75 13 a3.25 3.25 0 1 0 6.5 0 a3.25 3.25 0 1 0 -6.5 0zM295.75 91 a3.25 3.25 0 1 0 6.5 0 a3.25 3.25 0 1 0 -6.5 0z" fill="black"></path><path d="M867.75 403 a3.25 3.25 0 1 0 6.5 0 a3.25 3.25 0 1 0 -6.5 0zM919.75 403 a3.25 3.25 0 1 0 6.5 0 a3.25 3.25 0 1 0 -6.5 0z" fill="black"></path></mask></defs></svg>