<svg xmlns="http://www.w3.org/2000/svg" version="1.1" xmlns:xlink="http://www.w3.org/1999/xlink" xmlns:svgjs="http://svgjs.dev/svgjs" width="1300" height="83" preserveAspectRatio="none" viewBox="0 0 1300 83"><g mask="url(&quot;#SvgjsMask1000&quot;)" fill="none"><rect width="1300" height="83" x="0" y="0" fill="#0e2a47"></rect><g transform="translate(65, 0)" stroke-linecap="round"><path d="M305 26.82 L305 56.19" stroke-width="7.5" stroke="#dd1133"></path><path d="M315 23.15 L315 30.65" stroke-width="7.5" stroke="#dd1133"></path><path d="M315 41.9 L315 59.85" stroke-width="7.5" stroke="#3a7cc3"></path><path d="M325 37.29 L325 45.71" stroke-width="7.5" stroke="#3a7cc3"></path><path d="M335 36.48 L335 46.52" stroke-width="7.5" stroke="#3a7cc3"></path><path d="M345 34.980000000000004 L345 48.02" stroke-width="7.5" stroke="#dd1133"></path><path d="M355 37.44 L355 45.56" stroke-width="7.5" stroke="#3a7cc3"></path><path d="M365 40.18 L365 42.82" stroke-width="7.5" stroke="#dd1133"></path><path d="M375 25.61 L375 33.11" stroke-width="7.5" stroke="#3a7cc3"></path><path d="M375 44.36 L375 57.39" stroke-width="7.5" stroke="#dd1133"></path><path d="M385 42.85 L385 40.15" stroke-width="7.5" stroke="#dd1133"></path><path d="M395 27.91 L395 55.09" stroke-width="7.5" stroke="#dd1133"></path><path d="M405 27.41 L405 55.59" stroke-width="7.5" stroke="#3a7cc3"></path><path d="M415 28.64 L415 54.36" stroke-width="7.5" stroke="#3a7cc3"></path><path d="M425 33.14 L425 49.86" stroke-width="7.5" stroke="#3a7cc3"></path><path d="M435 38.7 L435 44.3" stroke-width="7.5" stroke="#3a7cc3"></path><path d="M445 35.22 L445 47.78" stroke-width="7.5" stroke="#3a7cc3"></path><path d="M455 26.05 L455 33.55" stroke-width="7.5" stroke="#3a7cc3"></path><path d="M455 44.8 L455 56.95" stroke-width="7.5" stroke="#dd1133"></path><path d="M465 42.65 L465 40.35" stroke-width="7.5" stroke="#dd1133"></path><path d="M475 41.3 L475 41.7" stroke-width="7.5" stroke="#dd1133"></path><path d="M485 35.67 L485 47.33" stroke-width="7.5" stroke="#3a7cc3"></path><path d="M495 30.6 L495 52.4" stroke-width="7.5" stroke="#3a7cc3"></path><path d="M505 26.63 L505 56.38" stroke-width="7.5" stroke="#3a7cc3"></path><path d="M515 39.72 L515 43.28" stroke-width="7.5" stroke="#dd1133"></path><path d="M525 42.91 L525 40.09" stroke-width="7.5" stroke="#dd1133"></path><path d="M535 37.17 L535 45.83" stroke-width="7.5" stroke="#3a7cc3"></path><path d="M545 33.370000000000005 L545 49.63" stroke-width="7.5" stroke="#3a7cc3"></path><path d="M555 25.23 L555 32.730000000000004" stroke-width="7.5" stroke="#dd1133"></path><path d="M555 43.980000000000004 L555 57.77" stroke-width="7.5" stroke="#3a7cc3"></path><path d="M565 42.63 L565 40.37" stroke-width="7.5" stroke="#dd1133"></path><path d="M575 37.44 L575 45.56" stroke-width="7.5" stroke="#dd1133"></path><path d="M585 42.8 L585 40.2" stroke-width="7.5" stroke="#3a7cc3"></path><path d="M595 42.48 L595 40.52" stroke-width="7.5" stroke="#3a7cc3"></path><path d="M605 35.019999999999996 L605 47.98" stroke-width="7.5" stroke="#dd1133"></path><path d="M615 31.05 L615 51.95" stroke-width="7.5" stroke="#dd1133"></path><path d="M625 35.31 L625 47.69" stroke-width="7.5" stroke="#dd1133"></path><path d="M635 31.81 L635 51.19" stroke-width="7.5" stroke="#dd1133"></path><path d="M645 40.7 L645 42.3" stroke-width="7.5" stroke="#dd1133"></path><path d="M655 42.7 L655 40.3" stroke-width="7.5" stroke="#dd1133"></path><path d="M665 39.53 L665 43.47" stroke-width="7.5" stroke="#3a7cc3"></path><path d="M675 23.15 L675 30.65" stroke-width="7.5" stroke="#3a7cc3"></path><path d="M675 41.9 L675 59.85" stroke-width="7.5" stroke="#dd1133"></path><path d="M685 23.11 L685 30.61" stroke-width="7.5" stroke="#3a7cc3"></path><path d="M685 41.86 L685 59.89" stroke-width="7.5" stroke="#3a7cc3"></path><path d="M695 31.19 L695 51.81" stroke-width="7.5" stroke="#dd1133"></path><path d="M705 32.019999999999996 L705 50.98" stroke-width="7.5" stroke="#3a7cc3"></path><path d="M715 28.14 L715 54.86" stroke-width="7.5" stroke="#dd1133"></path><path d="M725 40.21 L725 42.79" stroke-width="7.5" stroke="#3a7cc3"></path><path d="M735 25.11 L735 32.61" stroke-width="7.5" stroke="#3a7cc3"></path><path d="M735 43.86 L735 57.89" stroke-width="7.5" stroke="#3a7cc3"></path><path d="M745 31.27 L745 51.73" stroke-width="7.5" stroke="#dd1133"></path><path d="M755 38.02 L755 44.98" stroke-width="7.5" stroke="#dd1133"></path><path d="M765 40.45 L765 42.55" stroke-width="7.5" stroke="#dd1133"></path><path d="M775 29.21 L775 53.79" stroke-width="7.5" stroke="#3a7cc3"></path><path d="M785 33.879999999999995 L785 49.12" stroke-width="7.5" stroke="#dd1133"></path><path d="M795 32.5 L795 50.5" stroke-width="7.5" stroke="#3a7cc3"></path><path d="M805 39.23 L805 43.77" stroke-width="7.5" stroke="#dd1133"></path><path d="M815 26.95 L815 56.05" stroke-width="7.5" stroke="#dd1133"></path><path d="M825 33.79 L825 49.21" stroke-width="7.5" stroke="#dd1133"></path><path d="M835 37.86 L835 45.14" stroke-width="7.5" stroke="#3a7cc3"></path><path d="M845 30.67 L845 52.33" stroke-width="7.5" stroke="#3a7cc3"></path><path d="M855 23.85 L855 59.15" stroke-width="7.5" stroke="#dd1133"></path><path d="M865 23.28 L865 30.78" stroke-width="7.5" stroke="#3a7cc3"></path><path d="M865 42.03 L865 59.72" stroke-width="7.5" stroke="#dd1133"></path><path d="M875 33.81 L875 49.19" stroke-width="7.5" stroke="#3a7cc3"></path><path d="M885 25.86 L885 33.36" stroke-width="7.5" stroke="#3a7cc3"></path><path d="M885 44.61 L885 57.14" stroke-width="7.5" stroke="#3a7cc3"></path><path d="M895 42.16 L895 40.84" stroke-width="7.5" stroke="#dd1133"></path><path d="M905 28.47 L905 54.53" stroke-width="7.5" stroke="#3a7cc3"></path><path d="M915 23.51 L915 59.49" stroke-width="7.5" stroke="#dd1133"></path><path d="M925 35.620000000000005 L925 47.38" stroke-width="7.5" stroke="#dd1133"></path><path d="M935 28.16 L935 54.84" stroke-width="7.5" stroke="#dd1133"></path><path d="M945 40.66 L945 42.34" stroke-width="7.5" stroke="#dd1133"></path><path d="M955 42.77 L955 40.23" stroke-width="7.5" stroke="#3a7cc3"></path><path d="M965 41.28 L965 41.72" stroke-width="7.5" stroke="#3a7cc3"></path><path d="M975 38.16 L975 44.84" stroke-width="7.5" stroke="#3a7cc3"></path><path d="M985 33.239999999999995 L985 49.76" stroke-width="7.5" stroke="#dd1133"></path><path d="M995 30.91 L995 52.09" stroke-width="7.5" stroke="#dd1133"></path></g></g><defs><mask id="SvgjsMask1000"><rect width="1300" height="83" fill="#ffffff"></rect></mask></defs></svg>